<?xml version="1.0" encoding="utf-8"?>
<!-- Generator: Adobe Illustrator 16.0.0, SVG Export Plug-In . SVG Version: 6.00 Build 0)  -->
<!DOCTYPE svg PUBLIC "-//W3C//DTD SVG 1.1//EN" "http://www.w3.org/Graphics/SVG/1.1/DTD/svg11.dtd">
<svg version="1.1" id="Layer_1" xmlns="http://www.w3.org/2000/svg" xmlns:xlink="http://www.w3.org/1999/xlink" x="0px" y="0px"
	 width="1280.645px" height="274.194px" viewBox="0 0 1280.645 274.194" enable-background="new 0 0 1280.645 274.194"
	 xml:space="preserve">
<g opacity="0.2">
	<path fill-rule="evenodd" clip-rule="evenodd" fill="#FFFFFF" d="M1269.909,202.353c1.75,2.777,3.471,5.576,5.262,8.33
		c2.105,3.242,4.27,6.443,6.41,9.664c0,18.488,0,36.977,0,55.467c-426.668,0-853.333,0-1280,0c0-35.912,0-71.822,0-107.732
		c3.781,1.184,8.919-2.736,11.542,3.059c0.121,0.268,1.389,0.203,2.041,0.012c13.401-3.912,27.15-2.195,40.769-2.568
		c0.873-0.023,1.742-0.143,3.157-0.266c0-3.236,0-6.336,0-9.936c3.774-0.285,7.032-0.531,10.708-0.811c0-4.215,0-8.24,0-12.611
		c9.943,0,19.454,0,29.725,0c0,10.143,0,20.326,0,30.24c13.562,3.148,25.455,0.023,36.04-6.803
		c2.837-1.832,4.566-7.871,4.192-11.723c-1.16-11.949-3.527-23.785-5.524-35.646c-1.397-8.301,0.526-11.02,9.332-11.959
		c0.809-12.051,1.627-24.219,2.444-36.383c0.15-0.057,0.301-0.111,0.452-0.164c0.362,2.033,0.93,4.055,1.05,6.104
		c0.496,8.506,1.074,17.02,1.175,25.533c0.049,4.172,1.355,5.783,5.6,5.367c2.229-0.217,4.601,0.277,6.801,0.855
		c0.958,0.252,1.646,1.527,2.457,2.338c-0.872,0.752-1.662,2.01-2.628,2.164c-3.823,0.611-7.702,0.873-11.815,1.293
		c-0.763,3.609-1.54,7.285-2.316,10.959c-0.289-0.029-0.579-0.055-0.868-0.084c-0.467-2.715-0.785-5.465-1.473-8.121
		c-0.294-1.137-1.361-2.072-2.078-3.098c-0.975,1.051-2.221,1.971-2.827,3.203c-0.383,0.779,0.205,2.027,0.334,3.066
		c1.805,14.545,3.607,29.088,5.399,43.631c0.063,0.518-0.147,1.115,0.041,1.559c1.037,2.438,13.805,9.551,16.566,9.336
		c3.633-0.281,7.27-0.508,11.473-0.797c0-10.291-0.006-21.105,0.002-31.918c0.005-7.566,4.104-9.498,11.407-8.041
		c5.524,1.104,5.114,3.912,5.11,7.578c-0.012,10.104-0.004,20.205-0.004,30.637c2.578,1.033,4.353,0.705,4.233-3.027
		c-0.183-5.68-0.199-11.365-0.417-17.041c-0.115-2.992,1.155-4.023,4.099-4.088c10.258-0.229,20.51-0.83,30.768-0.949
		c4.916-0.057,9.869,0.447,14.739,1.148c1.168,0.17,2.793,2.047,2.952,3.299c0.327,2.57-0.196,5.252-0.426,8.762
		c7.776,0,15.3,0,23.146,0c0,2.914,0,4.971,0,7.029c-0.342-0.215-0.684-0.43-1.026-0.645c-1.375,1.979-2.33,4.725-4.221,5.76
		c-3.107,1.697-6.761,2.615-10.295,3.256c-4.032,0.727-8.186,0.787-12.591,1.711c4.403,2.607,4.197,5.645,3.27,9.852
		c-0.861,3.908-0.65,8.029,1.356,12.453c1.914,4.219,0.412,9.988,0.412,15.559c-3.837,0-7.486,0-11.136,0
		c-0.001,0.463-0.002,0.926-0.004,1.389c6.663,2.678,13.436-2.072,20.689,0.219c-0.199-13.352-8.641-26.115,1.852-38.76
		c6.91,0,15.752-1.764,23.396,0.508c7.307,2.17,14.085,1.078,21.304,1.988c0.281-1.77,0.494-3.107,0.719-4.525
		c2.716-0.285,5.446-1.148,7.952-0.719c5.773,0.996,11.896-1.939,17.517,3.584c2.621,2.578,9.156,1.021,13.876,1.656
		c4.762,0.641,10.559,0.256,13.947,2.863c5.019,3.861,10.34,2.217,16.287,3.475c-1.599,8.348-3.142,16.406-4.748,24.791
		c2.368,0,4.589,0,7.43,0c0-6.195,0.385-12.396-0.115-18.529c-0.453-5.566,1.557-7.502,6.884-6.67
		c1.375,0.215,2.812,0.031,3.429,0.031c9.502-12.195,22.165-7.814,33.502-8.629c0,9.389,0.49,18.426-0.165,27.377
		c-0.476,6.496,2.099,9.383,8.462,10.344c0.09-1.701,0.266-3.371,0.254-5.039c-0.162-20.787-0.312-41.572-0.555-62.355
		c-0.092-7.77-0.443-15.537-0.581-23.309c-0.017-0.91,0.349-2.037,0.938-2.711c3.265-3.738,6.654-7.365,10.338-11.398
		c3.558,4.686,7.111,9.164,10.388,13.836c0.693,0.986,0.502,2.68,0.508,4.051c0.117,23.195,0.198,46.393,0.301,69.588
		c0.002,0.508,0.172,1.018,0.346,1.988c11.964,0.881,25.137-3.322,35.031,8.904c1.297-13.055,2.429-24.416,3.558-35.775
		c0.831-0.027,1.663-0.055,2.493-0.082c1.076,7.15,2.582,14.271,3.107,21.463c0.539,7.396,0.118,14.863,0.118,22.676
		c3.884,0,7.315,0,10.953,0c0.144-1.201,0.364-2.23,0.374-3.264c0.191-20.961,0.422-41.922,0.451-62.885
		c0.003-2.373-1.15-4.746-1.758-7.121c-0.087-0.342-0.276-0.791-0.141-1.035c3.368-5.984,0.245-12.703,1.75-18.438
		c1.416-5.395,6.453-9.838,10.099-14.986c3.806,4.225,7.22,7.824,10.353,11.648c0.689,0.84,0.412,2.492,0.529,3.775
		c0.459,5.016,1.193,10.031,1.231,15.049c0.022,2.842-1.618,5.686-1.647,8.539c-0.194,19.02-0.156,38.041-0.189,57.064
		c-0.007,3.848-0.002,7.695-0.002,11.545c0.502,0.068,1.004,0.141,1.504,0.211c0.252-1.109,0.711-2.217,0.723-3.328
		c0.07-6.576,0-13.156,0.064-19.732c0.013-1.375-0.088-3.557,0.666-3.998c8.788-5.164,7.476-14.812,10.332-22.582
		c0.242-0.656,0.57-1.281,1.191-2.654c1.662,5.504,3.173,10.363,4.592,15.25c0.697,2.404,0.219,6.521,3.93,5.559
		c3.161-0.818,7.416-3.311,8.252-5.979c1.701-5.439,1.061-11.564,2.074-17.285c0.861-4.859,2.752-9.529,4.08-14.312
		c3.346-12.033,6.633-24.084,10.884-36.232c2.05,7.23,4.106,14.457,6.149,21.688c1.394,4.93,2.143,10.154,4.279,14.736
		c4.57,9.805,4.719,20.084,4.238,30.428c-0.254,5.471,3.998,6.035,7.076,6.822c2.98,0.76,6.449,0.338,7.162-4.67
		c0.736-5.168,2.857-10.141,4.807-16.645c3.305,13.193,6.285,25.096,9.266,36.998c0.207-0.027,0.414-0.053,0.621-0.08
		c0-5.459,0.002-10.92,0-16.379c-0.003-8.742-0.004-8.742,8.311-9.955c3.232-25.889,6.74-51.82,9.591-77.826
		c1.189-10.854,0.936-21.861,1.442-32.795c0.113-2.457,0.87-4.887,0.957-7.338c0.139-3.975,2.057-7.926-1.006-11.992
		c-0.944-1.254,0.901-4.717,1.736-7.074c0.101-0.285,2.631-0.24,2.746,0.098c0.819,2.375,2.614,5.807,1.653,7.148
		c-3.403,4.752-1.061,9.455-0.895,14.068c0.447,12.33,1.35,24.643,2.082,36.965c0.061,1.043,0.191,2.084,0.285,3.09
		c7.285,0.486,7.844-0.104,8.332-6.717c1.295-17.482,2.842-34.945,3.986-52.438c0.217-3.305-0.965-6.701-1.498-10.057
		c-0.139-0.869-0.623-1.908-0.318-2.582c0.932-2.055,2.17-3.969,3.291-5.938c1.311,2.014,4.221,4.836,3.676,5.914
		c-4.176,8.281-1.047,16.676-0.68,24.846c0.941,20.861,2.844,41.678,4.361,62.514c0.451,0.098,0.902,0.193,1.354,0.291
		c1.65-5.842,3.303-11.684,5.391-19.076c2.051,7.385,3.691,13.297,5.332,19.211c0.293,0.01,0.586,0.018,0.881,0.025
		c0.279-2,0.658-3.992,0.822-6.004c1.314-16.084,2.652-32.168,3.848-48.262c0.645-8.65,1.074-17.318,1.463-25.982
		c0.057-1.266-0.607-2.578-1.018-3.844c-0.268-0.818-1.104-1.686-0.949-2.363c0.523-2.305,1.27-4.584,2.23-6.738
		c0.117-0.27,2.799-0.021,2.979,0.469c0.807,2.191,1.629,4.58,1.533,6.857c-0.182,4.236-1.648,8.48-1.434,12.66
		c0.738,14.316,1.945,28.605,3.027,42.902c0.32,4.24,0.812,8.469,1.303,13.467c2.027,0.479,4.312,1.021,7.436,1.762
		c0.688-7.344,1.477-14.135,1.926-20.949c0.557-8.461,0.963-16.936,1.15-25.41c0.055-2.516-0.844-5.051-1.311-7.576
		c-0.223-1.203-1.023-2.719-0.566-3.543c0.988-1.789,2.617-3.225,3.984-4.803c1.064,1.611,3.021,3.234,3,4.832
		c-0.045,3.012-1.941,6.039-1.811,9.006c0.555,12.725,1.445,25.439,2.451,38.137c1.133,14.316,2.035,28.678,3.941,42.898
		c1.746,13.023,4.781,25.869,7.027,38.832c0.369,2.127-0.572,4.445-0.619,6.68c-0.104,5.289-0.033,10.576-0.033,16.17
		c2.469,0,4.676,0,6.951,0c0.562-2.807,1.104-5.502,1.619-8.074c2.059,1.812,3.896,3.428,5.734,5.045
		c0.805-1.148,1.609-2.299,3.104-4.432c7.49,0,16.018,0,24.688,0c2.432,7.26,4.363,8.436,12.973,7.268
		c0.23-2.43,0.465-4.953,0.703-7.475c0.424-0.064,0.85-0.127,1.275-0.189c1.398,4.314,3.283,8.545,4.076,12.969
		c1,5.578,3.742,6.996,9.703,4.977c0-5.885-0.068-12.057,0.016-18.229c0.125-9.582,0.283-19.168,0.629-28.748
		c0.043-1.146,1.395-2.219,2.027-3.387c0.85-1.566,1.59-3.193,2.67-5.393c2.213,0,5.027,0.002,7.844,0
		c8.305-0.002,12.662,5.117,15.33,12.779c6.029,17.305,1.342,34.871,2.822,52.223c0.074,0.871,0.018,1.754,0.053,2.629
		c0.006,0.156,0.174,0.303,0.781,1.301c4.328-0.609,9.041-1.277,13.568-1.916c0-7.475,0-14.771,0-22.598
		c0.828-0.264,2.248-0.715,3.67-1.168c-0.324-0.211-0.645-0.426-0.965-0.641c1.482-2.613,2.965-5.223,4.447-7.836
		c1.453,2.643,2.906,5.283,4.932,8.967c-0.029-0.002,1.475,0.158,2.914,0.311c0,7.625,0,14.947,0,22.857
		c3.619,0.686,7.594,1.441,12.361,2.342c0-2.988,0.014-5.074-0.002-7.16c-0.35-41.578-0.916-83.158-0.938-124.736
		c-0.006-14.174-0.266-28.68,2.547-42.43c2.699-13.176,5.346-27.16,15.031-37.912c0.475-0.529,0.973-1.039,1.494-1.521
		c7.285-6.738,11.057-7.127,18.148-0.092c3.877,3.846,6.559,8.98,9.379,13.768c1.408,2.389,1.744,5.385,2.873,7.971
		c4.305,9.859,6.305,20.193,6.721,30.885c0.414,10.637,1.068,21.27,1.221,31.908c0.473,33.221,0.781,66.443,1.104,99.666
		c0.092,9.525,0.014,19.053,0.014,28.871c4.678,0,7.816,0,11.256,0c0-46.674,0-93.311,0-140.145c12.055,0,24.176,0,37.133,0
		c0,42.34,0,83.959,0,126.771c6.838-1.717,12.613-3.168,19.037-4.781c0.266-4.895,0.736-10.156,0.797-15.418
		c0.135-11.91-0.189-23.832,0.195-35.729c0.193-6.008,1.527-11.977,2.314-17.746c16.52-1.076,18.311-0.951,19.436,5.811
		c1.514,0,3.09-0.004,4.67,0c7.891,0.021,9.832,1.854,10.207,9.934c0.156,3.346,0.027,6.703,0.027,10.342
		c3.219,0.377,5.977,0.838,8.754,1.002c7.158,0.422,9.764,3.125,9.775,10.404c0.008,6.031,0,12.059,0,18.145
		c2.049-0.244,3.844-0.498,5.646-0.662c2.25-0.207,5.07,0.969,5.652-2.893c0.074-0.508,2.457-0.891,3.787-0.945
		c3.344-0.133,6.695-0.043,10.672-0.043c0-2.396,0-4.303,0-6.209c-0.002-17.777-0.006-35.555,0-53.334
		c0.002-6.156,2.045-8.141,8.355-8.168c2.133-0.01,4.266,0.02,6.398-0.006c6.383-0.07,8.777-2.453,8.803-8.717
		c0.047-11.426,0.047-11.432,11.363-11.424c5.865,0.006,11.73,0.027,17.598,0.059c0.34,0.002,0.678,0.146,2.209,0.498
		c0,40.826,0,81.928,0,123.246c2.729,0,4.262,0,6.141,0c0.154-1.559,0.4-2.918,0.406-4.281c0.211-42.297,0.492-84.596,0.459-126.895
		c-0.004-4.625,1.689-5.551,5.682-6.793c9.354-2.912,18.1-1.219,27.01,1.443c4.057,1.213,6.068,3.018,5.941,7.812
		c-0.373,14.199-0.133,28.416-0.133,43.299c3.258,0.457,6.328,0.918,9.408,1.316c4.113,0.531,6.441,2.322,5.582,6.961
		c-0.348,1.881-0.057,3.881-0.057,6.734c13.863,0,27.52,0,42.16,0c0,7.602,0.002,14.314,0,21.027c0,2.006-0.322,4.336,2.99,2.895
		c-0.494,2.643-0.982,5.279-1.471,7.914c-3.438,3.002-6.875,6.004-10.314,9.004c0.508,0.676,1.012,1.348,1.518,2.021
		c1.859-0.828,3.721-1.654,5.58-2.482c6.676,0.891,13.354,1.781,20.646,2.754c-0.586-6.709-1.486-11.699-5.693-15.465
		c-0.66-1.121-1.32-2.242-1.98-3.363c-0.227-2.412-0.449-4.822-0.715-7.699c-3.186,3.09-5.43,5.268-7.674,7.445
		c0.146-0.652,0.062-1.596,0.469-1.914c5.898-4.631,6.049-11,5.879-17.711c-0.248-9.943-0.186-19.898,0.012-29.844
		c0.057-2.92,1.021-5.82,1.572-8.732c1.262,6.326,4.906,1.711,7.951,2.072c0-3.432,0.154-6.453-0.047-9.449
		c-0.176-2.576-0.758-5.125-1.162-7.686c1.082-15.502,2.166-31.002,2.959-42.363c1.07,16.861,2.402,37.943,3.738,59.025
		c0.426,0.047,0.85,0.096,1.277,0.141c0.316-0.484,0.631-0.971,1.418-2.178c0.441,3.158,1.066,5.717,1.111,8.289
		c0.135,7.992,0.654,16.045-0.076,23.975c-1.486,16.172,3.998,30.406,10.891,44.408c0.529,1.072,0.711,2.314,1.055,3.477
		c-0.611,0.932-1.963,2.186-1.719,2.744c2.572,5.902,5.396,11.691,8.156,17.512c0.49-0.229,0.984-0.457,1.477-0.688
		C1272.985,210.25,1271.448,206.302,1269.909,202.353z"/>
</g>
</svg>
