<?xml version="1.0" encoding="utf-8"?>
<!-- Generator: Adobe Illustrator 16.0.0, SVG Export Plug-In . SVG Version: 6.00 Build 0)  -->
<!DOCTYPE svg PUBLIC "-//W3C//DTD SVG 1.1//EN" "http://www.w3.org/Graphics/SVG/1.1/DTD/svg11.dtd">
<svg version="1.1" id="Capa_1" xmlns="http://www.w3.org/2000/svg" xmlns:xlink="http://www.w3.org/1999/xlink" x="0px" y="0px"
	 width="120px" height="120px" viewBox="0 0 120 120" enable-background="new 0 0 120 120" xml:space="preserve">
<circle fill="#FFFFFF" cx="-525.486" cy="25.035" r="223.485"/>
<rect x="-1339" y="581" display="none" fill-rule="evenodd" clip-rule="evenodd" fill="#E3FAFF" width="1280" height="419"/>
<g opacity="0.2">
	<path fill-rule="evenodd" clip-rule="evenodd" fill="#5275CC" d="M-70.671,926.539c1.75,2.777,3.471,5.575,5.261,8.329
		c2.106,3.242,4.271,6.444,6.41,9.665c0,18.487,0,36.977,0,55.467c-426.667,0-853.333,0-1280,0c0-35.913,0-71.823,0-107.733
		c3.781,1.185,8.919-2.735,11.542,3.06c0.121,0.268,1.389,0.202,2.041,0.011c13.401-3.912,27.15-2.195,40.769-2.568
		c0.873-0.023,1.742-0.142,3.157-0.265c0-3.237,0-6.336,0-9.936c3.774-0.285,7.032-0.531,10.708-0.811c0-4.215,0-8.241,0-12.612
		c9.943,0,19.454,0,29.725,0c0,10.144,0,20.327,0,30.241c13.562,3.148,25.455,0.023,36.04-6.804
		c2.837-1.831,4.566-7.871,4.192-11.723c-1.16-11.948-3.527-23.784-5.524-35.646c-1.397-8.3,0.526-11.019,9.332-11.958
		c0.809-12.052,1.627-24.219,2.444-36.384c0.15-0.056,0.301-0.11,0.452-0.164c0.362,2.033,0.93,4.056,1.05,6.104
		c0.496,8.506,1.074,17.019,1.175,25.533c0.049,4.171,1.355,5.783,5.6,5.366c2.229-0.217,4.601,0.277,6.801,0.856
		c0.958,0.252,1.646,1.527,2.457,2.338c-0.872,0.752-1.662,2.01-2.628,2.164c-3.823,0.61-7.702,0.873-11.815,1.292
		c-0.763,3.61-1.54,7.285-2.316,10.96c-0.289-0.029-0.579-0.056-0.868-0.085c-0.467-2.715-0.785-5.465-1.473-8.121
		c-0.294-1.136-1.361-2.071-2.078-3.098c-0.975,1.052-2.221,1.971-2.827,3.204c-0.383,0.779,0.205,2.027,0.334,3.066
		c1.805,14.544,3.607,29.088,5.399,43.631c0.063,0.518-0.147,1.115,0.041,1.559c1.037,2.438,13.805,9.55,16.566,9.336
		c3.633-0.281,7.27-0.509,11.473-0.798c0-10.29-0.006-21.104,0.002-31.917c0.005-7.566,4.104-9.498,11.407-8.042
		c5.524,1.104,5.114,3.913,5.11,7.579c-0.012,10.103-0.004,20.204-0.004,30.636c2.578,1.033,4.353,0.706,4.233-3.027
		c-0.183-5.679-0.199-11.364-0.417-17.041c-0.115-2.992,1.155-4.023,4.099-4.088c10.258-0.228,20.51-0.829,30.768-0.948
		c4.916-0.058,9.869,0.446,14.739,1.148c1.168,0.169,2.793,2.046,2.952,3.298c0.327,2.57-0.196,5.252-0.426,8.763
		c7.776,0,15.3,0,23.146,0c0,2.914,0,4.971,0,7.029c-0.342-0.215-0.684-0.43-1.026-0.645c-1.375,1.978-2.33,4.724-4.221,5.759
		c-3.107,1.698-6.761,2.616-10.295,3.256c-4.032,0.728-8.186,0.788-12.591,1.711c4.403,2.608,4.197,5.646,3.27,9.852
		c-0.861,3.908-0.65,8.029,1.356,12.454c1.914,4.219,0.412,9.988,0.412,15.559c-3.837,0-7.486,0-11.136,0
		c-0.001,0.463-0.002,0.925-0.004,1.388c6.663,2.679,13.436-2.071,20.689,0.219c-0.199-13.351-8.641-26.114,1.852-38.759
		c6.91,0,15.752-1.765,23.396,0.507c7.307,2.171,14.085,1.079,21.304,1.989c0.281-1.771,0.494-3.108,0.719-4.525
		c2.716-0.285,5.446-1.149,7.952-0.719c5.773,0.996,11.896-1.939,17.517,3.584c2.621,2.577,9.156,1.021,13.876,1.656
		c4.762,0.64,10.559,0.256,13.947,2.862c5.019,3.862,10.339,2.217,16.287,3.475c-1.599,8.349-3.142,16.406-4.748,24.792
		c2.368,0,4.588,0,7.429,0c0-6.195,0.385-12.397-0.115-18.529c-0.454-5.566,1.556-7.502,6.883-6.671
		c1.375,0.215,2.812,0.031,3.429,0.031c9.502-12.195,22.165-7.814,33.501-8.629c0,9.39,0.491,18.427-0.165,27.377
		c-0.476,6.496,2.099,9.384,8.461,10.344c0.09-1.7,0.267-3.371,0.254-5.039c-0.163-20.786-0.312-41.571-0.555-62.354
		c-0.091-7.771-0.443-15.537-0.581-23.309c-0.017-0.91,0.348-2.037,0.938-2.712c3.265-3.738,6.654-7.365,10.338-11.398
		c3.558,4.686,7.111,9.165,10.388,13.836c0.693,0.987,0.501,2.681,0.507,4.052c0.117,23.195,0.198,46.392,0.3,69.588
		c0.003,0.508,0.173,1.017,0.347,1.987c11.963,0.881,25.136-3.321,35.03,8.904c1.298-13.055,2.429-24.415,3.558-35.775
		c0.832-0.027,1.663-0.054,2.493-0.081c1.076,7.149,2.583,14.271,3.107,21.462c0.54,7.396,0.119,14.863,0.119,22.676
		c3.883,0,7.315,0,10.953,0c0.143-1.2,0.364-2.229,0.374-3.263c0.192-20.961,0.422-41.923,0.451-62.886
		c0.003-2.373-1.151-4.746-1.757-7.121c-0.087-0.341-0.277-0.791-0.141-1.035c3.368-5.983,0.245-12.702,1.75-18.438
		c1.416-5.394,6.452-9.837,10.098-14.985c3.805,4.225,7.22,7.823,10.353,11.648c0.688,0.839,0.411,2.491,0.529,3.774
		c0.459,5.017,1.194,10.031,1.231,15.05c0.022,2.842-1.619,5.686-1.648,8.538c-0.194,19.021-0.155,38.041-0.189,57.064
		c-0.006,3.848-0.001,7.695-0.001,11.546c0.501,0.068,1.003,0.14,1.503,0.21c0.252-1.108,0.711-2.217,0.723-3.327
		c0.07-6.577,0-13.156,0.064-19.733c0.013-1.375-0.088-3.556,0.666-3.997c8.789-5.165,7.476-14.812,10.333-22.582
		c0.242-0.656,0.571-1.281,1.191-2.654c1.663,5.503,3.173,10.363,4.592,15.25c0.698,2.404,0.219,6.521,3.929,5.559
		c3.162-0.818,7.417-3.311,8.252-5.979c1.701-5.44,1.061-11.565,2.074-17.286c0.861-4.858,2.752-9.529,4.081-14.312
		c3.346-12.033,6.632-24.083,10.883-36.231c2.05,7.229,4.106,14.457,6.15,21.688c1.393,4.93,2.142,10.154,4.278,14.736
		c4.571,9.804,4.719,20.083,4.238,30.427c-0.254,5.471,3.998,6.035,7.077,6.823c2.979,0.76,6.448,0.337,7.162-4.671
		c0.736-5.167,2.857-10.14,4.806-16.645c3.305,13.194,6.286,25.097,9.267,36.998c0.207-0.026,0.414-0.052,0.621-0.079
		c0-5.46,0.001-10.921-0.001-16.379c-0.002-8.742-0.003-8.742,8.311-9.956c3.232-25.888,6.741-51.819,9.591-77.825
		c1.189-10.854,0.936-21.862,1.442-32.796c0.113-2.456,0.871-4.886,0.957-7.338c0.14-3.974,2.057-7.925-1.005-11.991
		c-0.944-1.255,0.901-4.717,1.736-7.074c0.101-0.285,2.631-0.24,2.747,0.097c0.819,2.375,2.614,5.808,1.652,7.149
		c-3.402,4.752-1.061,9.455-0.894,14.067c0.447,12.331,1.35,24.644,2.082,36.965c0.062,1.044,0.191,2.085,0.285,3.09
		c7.286,0.487,7.844-0.103,8.333-6.717c1.294-17.481,2.842-34.945,3.985-52.437c0.217-3.305-0.965-6.701-1.497-10.057
		c-0.139-0.87-0.624-1.908-0.319-2.582c0.932-2.055,2.171-3.969,3.291-5.938c1.311,2.014,4.221,4.835,3.677,5.913
		c-4.176,8.281-1.048,16.677-0.68,24.847c0.941,20.861,2.844,41.678,4.361,62.514c0.451,0.098,0.901,0.193,1.353,0.291
		c1.651-5.842,3.303-11.684,5.392-19.077c2.05,7.386,3.691,13.298,5.332,19.211c0.293,0.01,0.586,0.019,0.88,0.026
		c0.279-2,0.659-3.993,0.823-6.004c1.314-16.085,2.652-32.169,3.848-48.263c0.645-8.65,1.073-17.317,1.463-25.982
		c0.057-1.266-0.608-2.578-1.019-3.844c-0.267-0.817-1.103-1.685-0.948-2.362c0.523-2.306,1.269-4.584,2.229-6.738
		c0.118-0.27,2.8-0.022,2.979,0.469c0.807,2.191,1.63,4.58,1.534,6.857c-0.182,4.236-1.648,8.479-1.434,12.66
		c0.737,14.315,1.945,28.605,3.027,42.901c0.32,4.241,0.812,8.469,1.302,13.467c2.027,0.479,4.312,1.022,7.436,1.763
		c0.688-7.344,1.477-14.136,1.927-20.95c0.557-8.461,0.963-16.936,1.15-25.41c0.054-2.515-0.844-5.05-1.311-7.576
		c-0.223-1.203-1.023-2.719-0.566-3.542c0.987-1.789,2.616-3.225,3.983-4.804c1.064,1.611,3.022,3.235,3,4.832
		c-0.044,3.013-1.94,6.04-1.811,9.007c0.556,12.725,1.445,25.438,2.452,38.137c1.133,14.316,2.035,28.677,3.941,42.897
		c1.746,13.023,4.781,25.869,7.027,38.832c0.368,2.127-0.573,4.445-0.619,6.681c-0.104,5.288-0.033,10.575-0.033,16.169
		c2.469,0,4.675,0,6.95,0c0.562-2.807,1.104-5.502,1.62-8.073c2.059,1.812,3.896,3.428,5.733,5.044
		c0.805-1.147,1.61-2.298,3.104-4.431c7.489,0,16.017,0,24.688,0c2.432,7.26,4.362,8.435,12.973,7.267
		c0.229-2.43,0.465-4.952,0.702-7.474c0.425-0.064,0.851-0.127,1.275-0.189c1.399,4.314,3.283,8.544,4.077,12.969
		c1,5.577,3.741,6.996,9.702,4.976c0-5.884-0.067-12.057,0.017-18.228c0.125-9.583,0.283-19.169,0.629-28.748
		c0.042-1.147,1.394-2.219,2.027-3.388c0.85-1.566,1.589-3.193,2.669-5.392c2.214,0,5.028,0.002,7.844,0
		c8.306-0.002,12.662,5.117,15.331,12.779c6.029,17.305,1.342,34.871,2.822,52.223c0.073,0.871,0.017,1.753,0.053,2.628
		c0.006,0.156,0.173,0.304,0.781,1.302c4.327-0.61,9.041-1.277,13.568-1.917c0-7.475,0-14.771,0-22.598
		c0.827-0.263,2.248-0.715,3.669-1.167c-0.323-0.212-0.644-0.427-0.965-0.642c1.483-2.612,2.965-5.223,4.448-7.835
		c1.452,2.642,2.906,5.283,4.931,8.967c-0.028-0.002,1.476,0.158,2.915,0.311c0,7.625,0,14.947,0,22.857
		c3.619,0.686,7.594,1.44,12.36,2.342c0-2.989,0.015-5.074-0.002-7.16c-0.35-41.579-0.915-83.158-0.938-124.737
		c-0.006-14.173-0.265-28.68,2.548-42.429c2.698-13.176,5.346-27.16,15.031-37.912c0.475-0.529,0.973-1.04,1.494-1.521
		c7.285-6.739,11.056-7.128,18.147-0.093c3.877,3.847,6.559,8.98,9.379,13.769c1.408,2.389,1.744,5.385,2.873,7.971
		c4.305,9.859,6.305,20.192,6.721,30.885c0.415,10.637,1.069,21.269,1.221,31.908c0.474,33.221,0.781,66.443,1.104,99.666
		c0.092,9.525,0.013,19.053,0.013,28.871c4.679,0,7.816,0,11.256,0c0-46.675,0-93.311,0-140.146c12.055,0,24.176,0,37.134,0
		c0,42.34,0,83.96,0,126.772c6.837-1.717,12.612-3.168,19.037-4.781c0.265-4.896,0.735-10.156,0.796-15.418
		c0.136-11.911-0.189-23.832,0.196-35.729c0.193-6.007,1.526-11.976,2.314-17.746c16.519-1.075,18.311-0.95,19.436,5.811
		c1.513,0,3.089-0.004,4.669,0c7.892,0.022,9.833,1.854,10.208,9.934c0.156,3.346,0.027,6.704,0.027,10.342
		c3.219,0.377,5.977,0.839,8.754,1.002c7.158,0.423,9.763,3.125,9.775,10.404c0.008,6.031,0,12.06,0,18.146
		c2.048-0.244,3.844-0.498,5.646-0.662c2.25-0.207,5.07,0.969,5.652-2.893c0.074-0.508,2.458-0.892,3.787-0.945
		c3.344-0.134,6.696-0.044,10.673-0.044c0-2.396,0-4.302,0-6.208c-0.002-17.777-0.006-35.555,0-53.334
		c0.002-6.156,2.044-8.142,8.354-8.168c2.133-0.011,4.267,0.019,6.399-0.007c6.382-0.07,8.777-2.452,8.803-8.717
		c0.046-11.425,0.046-11.431,11.362-11.423c5.866,0.005,11.731,0.027,17.598,0.059c0.34,0.002,0.678,0.146,2.209,0.498
		c0,40.825,0,81.927,0,123.246c2.729,0,4.262,0,6.142,0c0.153-1.559,0.399-2.919,0.406-4.281
		c0.21-42.298,0.491-84.596,0.458-126.895c-0.004-4.625,1.689-5.552,5.682-6.793c9.354-2.913,18.1-1.219,27.01,1.443
		c4.057,1.213,6.069,3.017,5.941,7.812c-0.372,14.198-0.133,28.415-0.133,43.298c3.258,0.458,6.329,0.919,9.408,1.316
		c4.114,0.531,6.441,2.323,5.583,6.961c-0.348,1.881-0.058,3.881-0.058,6.735c13.864,0,27.521,0,42.16,0
		c0,7.602,0.002,14.314,0,21.027c0,2.006-0.321,4.335,2.991,2.894c-0.495,2.644-0.983,5.279-1.471,7.914
		c-3.438,3.003-6.875,6.005-10.314,9.005c0.507,0.675,1.011,1.348,1.517,2.021c1.86-0.827,3.721-1.654,5.581-2.481
		c6.676,0.89,13.353,1.781,20.646,2.754c-0.586-6.71-1.487-11.699-5.694-15.466c-0.66-1.121-1.32-2.242-1.98-3.363
		c-0.226-2.412-0.448-4.822-0.715-7.699c-3.186,3.091-5.43,5.269-7.673,7.445c0.146-0.652,0.062-1.596,0.469-1.914
		c5.897-4.63,6.048-11,5.879-17.711c-0.248-9.943-0.186-19.897,0.011-29.844c0.058-2.919,1.022-5.82,1.572-8.731
		c1.263,6.325,4.906,1.711,7.952,2.071c0-3.432,0.154-6.452-0.048-9.448c-0.175-2.577-0.758-5.125-1.162-7.686
		c1.083-15.502,2.166-31.002,2.96-42.363c1.069,16.861,2.402,37.942,3.737,59.024c0.426,0.048,0.851,0.096,1.277,0.142
		c0.316-0.485,0.632-0.971,1.419-2.178c0.441,3.158,1.066,5.717,1.11,8.288c0.136,7.993,0.654,16.046-0.075,23.975
		c-1.487,16.173,3.998,30.406,10.89,44.408c0.529,1.073,0.711,2.314,1.055,3.478c-0.61,0.931-1.963,2.186-1.719,2.743
		c2.572,5.902,5.397,11.692,8.156,17.513c0.491-0.229,0.985-0.458,1.477-0.688C-67.596,934.435-69.133,930.487-70.671,926.539z"/>
</g>
<g>
	<path fill="#5275CC" d="M-2357.495,189.799h16.6v55h61v-55h16.8V321h-16.8v-61.801h-61V321h-16.6V189.799z"/>
	<path fill="#5275CC" d="M-2240.231,357.849c7.985-7.984,15.081-15.192,21.292-21.625c6.209-6.43,11.42-12.394,15.636-17.883
		c4.214-5.488,7.429-10.534,9.648-15.137c2.217-4.601,3.327-9.065,3.327-13.391c0-6.098-1.663-11.088-4.99-14.972
		c-3.327-3.88-8.375-5.822-15.138-5.822c-4.437,0-8.541,1.248-12.31,3.743c-3.771,2.495-7.21,5.518-10.313,9.065l-7.818-7.818
		c4.434-4.879,9.149-8.787,14.14-11.728c4.99-2.937,10.979-4.407,17.965-4.407c9.869,0,17.633,2.855,23.289,8.566
		c5.656,5.713,8.484,13.281,8.484,22.706c0,4.991-1.082,10.01-3.244,15.055c-2.162,5.047-5.157,10.258-8.983,15.637
		c-3.825,5.38-8.374,10.979-13.64,16.801c-5.269,5.821-11.062,12.006-17.383,18.548c2.882-0.221,5.876-0.441,8.982-0.666
		c3.104-0.221,6.043-0.333,8.816-0.333h30.774V366h-68.535V357.849z"/>
	<path d="M-2140.497,329.4v36h-6V225.399h5.199l0.801,12.399h0.399c4.8-3.865,10.031-7.299,15.7-10.299c5.666-3,11.5-4.5,17.5-4.5
		c12.932,0,22.565,4.434,28.9,13.299c6.33,8.869,9.5,20.701,9.5,35.5c0,8.135-1.135,15.4-3.4,21.801
		c-2.27,6.4-5.334,11.801-9.2,16.199c-3.868,4.4-8.368,7.77-13.5,10.102c-5.134,2.33-10.569,3.5-16.3,3.5
		c-4.669,0-9.469-1.035-14.4-3.102c-4.934-2.064-10-5.031-15.199-8.898V329.4z M-2140.497,304.6
		c5.865,4.801,11.365,8.199,16.5,10.199c5.131,2,9.631,3,13.5,3c5.199,0,9.965-1.131,14.299-3.398
		c4.332-2.266,8.101-5.432,11.301-9.5c3.199-4.066,5.666-8.932,7.4-14.602c1.73-5.665,2.6-11.83,2.6-18.5
		c0-6.131-0.568-11.83-1.7-17.1c-1.134-5.266-3-9.831-5.601-13.699c-2.6-3.866-5.969-6.9-10.1-9.101c-4.135-2.2-9.135-3.3-15-3.3
		c-5.068,0-10.3,1.434-15.699,4.3c-5.4,2.868-11.234,7.034-17.5,12.5V304.6z"/>
	<path d="M-1922.501,201c-1.869,0-3.469-0.632-4.801-1.9c-1.334-1.266-2-2.9-2-4.9c0-2.266,0.666-3.965,2-5.1
		c1.332-1.131,2.932-1.7,4.801-1.7c1.865,0,3.465,0.569,4.8,1.7c1.331,1.135,2,2.834,2,5.1c0,2-0.669,3.635-2,4.9
		C-1919.036,200.368-1920.636,201-1922.501,201z M-1925.701,225.399h6V321h-6V225.399z"/>
	<path d="M-1891.305,225.399h5.2l0.8,15.2h0.399c5.066-5.066,10.2-9.266,15.4-12.6c5.2-3.332,11.131-5,17.8-5
		c9.866,0,17.132,2.934,21.8,8.799c4.666,5.869,7,15.069,7,27.601V321h-6v-60.801c0-10.666-1.8-18.6-5.399-23.8
		c-3.601-5.2-9.534-7.8-17.8-7.8c-6,0-11.5,1.6-16.5,4.8s-10.569,8-16.7,14.399V321h-6V225.399z"/>
	<path d="M-1794.107,231h-15.2v-4.801l15.2-0.8l0.8-28h5.2v28h28.399V231h-28.399v65.6c0,3.068,0.231,5.9,0.7,8.5
		c0.465,2.6,1.3,4.834,2.5,6.699c1.199,1.869,2.899,3.336,5.1,4.4c2.2,1.068,5.031,1.6,8.5,1.6c1.865,0,3.932-0.33,6.2-1
		c2.266-0.664,4.331-1.398,6.2-2.199l2,5.199c-2.801,1.07-5.569,1.932-8.301,2.602c-2.734,0.664-4.899,1-6.5,1
		c-4.399,0-8.034-0.67-10.899-2c-2.869-1.332-5.169-3.201-6.9-5.602c-1.734-2.398-2.935-5.299-3.6-8.699
		c-0.669-3.4-1-7.166-1-11.301V231z"/>
	<path d="M-1748.11,305.4c4,3.469,8.4,6.398,13.2,8.799s10.8,3.6,18,3.6c4,0,7.531-0.564,10.6-1.699
		c3.066-1.131,5.601-2.631,7.601-4.5c2-1.865,3.531-4.031,4.6-6.5c1.065-2.465,1.601-5.031,1.601-7.699
		c0-3.201-0.734-5.967-2.2-8.301c-1.469-2.332-3.335-4.4-5.601-6.2c-2.269-1.8-4.834-3.3-7.699-4.5c-2.869-1.2-5.7-2.331-8.5-3.399
		c-3.734-1.332-7.435-2.732-11.101-4.201c-3.669-1.465-7-3.199-10-5.199s-5.435-4.432-7.3-7.301c-1.869-2.865-2.8-6.365-2.8-10.5
		c0-3.33,0.631-6.5,1.899-9.5c1.266-3,3.166-5.631,5.7-7.899c2.531-2.266,5.666-4.065,9.4-5.399c3.731-1.332,8.065-2,13-2
		c4.8,0,9.531,0.899,14.2,2.699c4.665,1.801,8.73,4.1,12.199,6.9l-3.6,4.8c-3.2-2.399-6.6-4.466-10.2-6.2
		c-3.6-1.73-7.935-2.6-13-2.6c-4,0-7.469,0.534-10.399,1.6c-2.935,1.068-5.335,2.5-7.2,4.301c-1.869,1.799-3.269,3.799-4.2,6
		c-0.935,2.199-1.4,4.5-1.4,6.899c0,2.935,0.666,5.435,2,7.5c1.332,2.069,3.101,3.868,5.301,5.399
		c2.199,1.535,4.665,2.9,7.399,4.101c2.731,1.2,5.565,2.335,8.5,3.399c3.731,1.469,7.531,2.936,11.4,4.4
		c3.865,1.469,7.3,3.234,10.3,5.301c3,2.068,5.466,4.668,7.4,7.799c1.931,3.135,2.899,7.035,2.899,11.701c0,3.469-0.7,6.799-2.1,10
		c-1.4,3.199-3.4,6-6,8.4c-2.601,2.398-5.869,4.334-9.8,5.799c-3.935,1.467-8.369,2.201-13.301,2.201
		c-7.199,0-13.734-1.301-19.6-3.9c-5.869-2.6-10.935-5.701-15.2-9.301L-1748.11,305.4z"/>
	<g>
		<path fill="#54AACC" d="M-2001.221,329.32c-30.921,0-56.077-25.158-56.077-56.082c0-6.224,1.014-12.34,3.015-18.18
			c6.66-19.436,44.55-84.219,46.159-86.967l6.902-11.785l6.903,11.784c1.61,2.748,39.51,67.533,46.165,86.979
			c1.999,5.836,3.014,11.95,3.014,18.169C-1945.14,304.162-1970.298,329.32-2001.221,329.32z M-2001.22,188.099
			c-13.058,22.761-33.701,59.812-37.927,72.146c-1.428,4.167-2.151,8.539-2.151,12.994c0,22.102,17.979,40.082,40.077,40.082
			c22.101,0,40.081-17.98,40.081-40.082c0-4.45-0.724-8.819-2.151-12.985C-1967.515,247.912-1988.161,210.858-2001.22,188.099z"/>
		<g opacity="0.1">
			<path fill="#54AACC" d="M-1977.898,263.809c-3.24-2.726-6.541-5.333-9.914-7.75c-4.054-2.908-8.188-2.79-12.229,0.216
				c-1.624,1.207-3.218,2.488-4.821,3.748c-2.168,1.703-4.304,3.484-6.502,5.113c-4.062,3.01-8.156,2.876-12.209-0.067
				c-1.535-1.116-3.03-2.339-4.553-3.493c-2.801-2.131-5.535-4.383-8.414-6.302c-0.154-0.103-0.322-0.195-0.497-0.28
				c-0.896,2.039-1.617,3.818-2.108,5.251c-0.899,2.624-1.518,5.33-1.854,8.086c0,0.004,0,0.008,0,0.012
				c3,0.342,6.412,2.387,9.271,4.731c2.191,1.795,4.394,3.553,6.562,5.4c5.196,4.426,10.368,4.373,15.559,0.006
				c1.068-0.896,2.132-1.781,3.212-2.647c2.11-1.696,4.191-3.454,6.347-5.039c4.09-3.013,8.278-3.122,12.382-0.128
				c3.359,2.448,6.644,5.09,9.904,7.769c5.322,4.372,10.574,4.493,15.888-0.028c0.145-0.123,0.292-0.238,0.437-0.36
				c0.19-1.578,0.299-3.179,0.299-4.807c0-3.081-0.355-6.121-1.042-9.083C-1967.424,268.305-1972.605,268.258-1977.898,263.809z"/>
			<path fill="#54AACC" d="M-1977.668,291.826c-2.931-2.425-5.912-4.745-8.883-7.082c-4.879-3.846-9.749-3.799-14.589,0.146
				c-2.291,1.865-4.646,3.607-6.836,5.664c-6.25,5.858-12.403,5.976-18.723,0.146c-2.742-2.527-5.653-4.767-8.616-6.802
				c-1.496-1.031-3.199-1.529-5.098-2.29c2.669,12.516,11.196,22.879,22.563,28.086c2.308,0.128,4.619-0.664,6.915-2.438
				c3.082-2.378,6.12-4.854,9.129-7.385c5.295-4.452,10.572-4.563,15.904-0.149c2.566,2.125,5.18,4.148,7.75,6.263
				c4.244-2.999,7.88-6.8,10.689-11.183C-1970.858,295.651-1974.251,294.653-1977.668,291.826z"/>
			<path fill="#54AACC" d="M-2026.935,249.242c6.207,5.805,12.361,6.247,18.69,0.279c2.497-2.355,5.188-4.355,7.847-6.385
				c4.275-3.266,8.642-3.416,12.968-0.194c2.911,2.17,5.847,4.325,8.609,6.811c4.263,3.837,8.442,4.901,12.591,3.392
				c-1.862-4.083-4.323-9.045-7.142-14.497c-1.32-0.521-2.633-1.287-3.935-2.297c-3.734-2.898-7.428-5.907-11.247-8.591
				c-3.46-2.433-7.068-2.289-10.572,0.048c-1.612,1.074-3.179,2.273-4.733,3.492c-2.361,1.847-4.678,3.792-7.038,5.632
				c-4.295,3.343-8.631,3.343-12.933,0.054c-1.041-0.797-2.068-1.622-3.096-2.446c-1.899,3.613-3.683,7.073-5.277,10.267
				C-2030.384,246.129-2028.634,247.653-2026.935,249.242z"/>
		</g>
	</g>
</g>
<g>
	<path fill="#5275CC" d="M-942.673,633.254h12.129v40.188h44.571v-40.188h12.275v95.865h-12.275v-45.155h-44.571v45.155h-12.129
		V633.254z"/>
	<path fill="#5275CC" d="M-856.992,756.044c5.834-5.834,11.019-11.101,15.558-15.801c4.537-4.698,8.345-9.056,11.425-13.066
		c3.079-4.011,5.428-7.696,7.05-11.061c1.62-3.36,2.431-6.623,2.431-9.783c0-4.456-1.215-8.102-3.646-10.94
		c-2.431-2.835-6.119-4.254-11.061-4.254c-3.242,0-6.24,0.912-8.994,2.735c-2.755,1.823-5.269,4.031-7.535,6.624l-5.713-5.713
		c3.24-3.564,6.685-6.42,10.331-8.568c3.646-2.146,8.022-3.221,13.127-3.221c7.211,0,12.884,2.086,17.017,6.259
		c4.132,4.175,6.199,9.704,6.199,16.591c0,3.647-0.791,7.314-2.371,11c-1.58,3.688-3.768,7.496-6.563,11.426
		c-2.795,3.931-6.119,8.021-9.967,12.275c-3.849,4.254-8.082,8.773-12.701,13.553c2.106-0.162,4.294-0.323,6.563-0.486
		c2.268-0.161,4.416-0.244,6.442-0.244h22.486V762h-50.077V756.044z"/>
	<path fill="#444444" d="M-784.118,735.258v26.304h-4.384V659.267h3.799l0.585,9.061h0.292c3.507-2.824,7.33-5.333,11.471-7.525
		c4.141-2.192,8.403-3.288,12.787-3.288c9.449,0,16.488,3.239,21.117,9.717c4.625,6.481,6.941,15.126,6.941,25.939
		c0,5.943-0.829,11.252-2.484,15.93c-1.659,4.676-3.898,8.622-6.723,11.836c-2.827,3.215-6.114,5.677-9.864,7.381
		c-3.751,1.702-7.722,2.557-11.91,2.557c-3.411,0-6.919-0.756-10.522-2.266c-3.605-1.508-7.307-3.677-11.105-6.502V735.258z
		 M-784.118,717.137c4.285,3.508,8.304,5.99,12.056,7.451c3.749,1.463,7.038,2.192,9.864,2.192c3.799,0,7.281-0.825,10.448-2.482
		c3.166-1.655,5.919-3.969,8.257-6.941c2.338-2.972,4.14-6.526,5.407-10.67c1.264-4.139,1.899-8.644,1.899-13.517
		c0-4.48-0.415-8.645-1.242-12.495c-0.829-3.847-2.192-7.183-4.093-10.009c-1.899-2.825-4.361-5.042-7.379-6.649
		c-3.021-1.608-6.674-2.411-10.959-2.411c-3.704,0-7.526,1.048-11.471,3.142c-3.946,2.096-8.209,5.14-12.787,9.133V717.137z"/>
	<path fill="#444444" d="M-624.835,641.439c-1.365,0-2.534-0.462-3.508-1.39c-0.974-0.924-1.461-2.118-1.461-3.58
		c0-1.655,0.487-2.897,1.461-3.727c0.974-0.826,2.143-1.242,3.508-1.242c1.363,0,2.531,0.416,3.508,1.242
		c0.972,0.829,1.461,2.071,1.461,3.727c0,1.462-0.489,2.656-1.461,3.58C-622.304,640.978-623.472,641.439-624.835,641.439z
		 M-627.173,659.267h4.384v69.853h-4.384V659.267z"/>
	<path fill="#444444" d="M-602.041,659.267h3.801l0.584,11.106h0.292c3.702-3.701,7.453-6.77,11.253-9.206
		c3.8-2.435,8.133-3.653,13.005-3.653c7.21,0,12.519,2.144,15.93,6.43c3.409,4.288,5.114,11.011,5.114,20.166v45.01h-4.385v-44.425
		c0-7.794-1.314-13.59-3.944-17.391c-2.631-3.799-6.967-5.698-13.007-5.698c-4.383,0-8.401,1.168-12.055,3.507
		c-3.654,2.339-7.724,5.846-12.203,10.521v53.485h-4.385V659.267z"/>
	<path fill="#444444" d="M-531.021,663.359h-11.105v-3.508l11.105-0.585l0.585-20.458h3.8v20.458h20.751v4.093h-20.751v47.932
		c0,2.242,0.169,4.311,0.511,6.211c0.341,1.899,0.95,3.532,1.827,4.895c0.876,1.366,2.118,2.438,3.727,3.216
		c1.607,0.78,3.676,1.168,6.211,1.168c1.362,0,2.872-0.241,4.53-0.729c1.655-0.486,3.165-1.022,4.53-1.607l1.461,3.799
		c-2.046,0.781-4.069,1.412-6.064,1.901c-1.998,0.484-3.58,0.729-4.75,0.729c-3.214,0-5.87-0.489-7.964-1.461
		c-2.097-0.974-3.776-2.339-5.042-4.093c-1.268-1.753-2.144-3.872-2.63-6.356c-0.488-2.484-0.731-5.235-0.731-8.258V663.359z"/>
	<path fill="#444444" d="M-497.412,717.722c2.923,2.534,6.138,4.675,9.645,6.429c3.508,1.754,7.892,2.63,13.153,2.63
		c2.922,0,5.502-0.412,7.744-1.241c2.24-0.826,4.092-1.923,5.553-3.288c1.463-1.362,2.581-2.945,3.361-4.749
		c0.778-1.801,1.17-3.676,1.17-5.626c0-2.339-0.536-4.359-1.607-6.065c-1.074-1.703-2.437-3.215-4.093-4.53
		c-1.657-1.315-3.532-2.41-5.626-3.287c-2.096-0.878-4.164-1.704-6.21-2.484c-2.729-0.974-5.432-1.997-8.111-3.069
		c-2.681-1.07-5.114-2.338-7.307-3.799c-2.191-1.462-3.971-3.238-5.334-5.335c-1.365-2.094-2.046-4.651-2.046-7.672
		c0-2.434,0.461-4.75,1.388-6.941c0.926-2.191,2.314-4.114,4.166-5.771c1.85-1.656,4.14-2.972,6.868-3.945
		c2.727-0.974,5.894-1.462,9.499-1.462c3.507,0,6.964,0.657,10.376,1.973c3.408,1.315,6.379,2.995,8.913,5.041l-2.63,3.508
		c-2.339-1.753-4.822-3.264-7.453-4.53c-2.63-1.265-5.798-1.899-9.498-1.899c-2.924,0-5.458,0.39-7.599,1.168
		c-2.146,0.781-3.899,1.827-5.262,3.143c-1.365,1.314-2.389,2.776-3.069,4.385c-0.683,1.607-1.022,3.287-1.022,5.041
		c0,2.145,0.486,3.971,1.461,5.48c0.974,1.512,2.266,2.826,3.874,3.944c1.605,1.122,3.408,2.119,5.406,2.996
		c1.995,0.878,4.065,1.706,6.211,2.484c2.727,1.073,5.502,2.145,8.329,3.215c2.824,1.073,5.334,2.364,7.525,3.873
		c2.192,1.512,3.994,3.411,5.407,5.698c1.411,2.291,2.119,5.141,2.119,8.55c0,2.535-0.512,4.968-1.534,7.308
		c-1.023,2.337-2.484,4.384-4.384,6.138c-1.899,1.752-4.289,3.167-7.16,4.237c-2.875,1.071-6.115,1.607-9.719,1.607
		c-5.261,0-10.036-0.95-14.321-2.85c-4.289-1.899-7.989-4.165-11.106-6.796L-497.412,717.722z"/>
	<g>
		<path fill="#54AACC" d="M-682.353,735.199c-22.594,0-40.975-18.382-40.975-40.978c0-4.548,0.741-9.017,2.203-13.283
			c4.866-14.202,32.551-61.537,33.727-63.545l5.044-8.61l5.044,8.609c1.177,2.009,28.869,49.345,33.731,63.554
			c1.46,4.264,2.202,8.731,2.202,13.275C-641.376,716.817-659.759,735.199-682.353,735.199z M-682.353,632.013
			c-9.54,16.63-24.624,43.703-27.712,52.714c-1.043,3.045-1.571,6.239-1.571,9.495c0,16.149,13.136,29.286,29.283,29.286
			s29.286-13.137,29.286-29.286c0-3.252-0.529-6.444-1.572-9.487C-657.725,675.716-672.811,648.643-682.353,632.013z"/>
		<g opacity="0.1">
			<path fill="#54AACC" d="M-665.312,687.331c-2.368-1.991-4.779-3.896-7.245-5.663c-2.961-2.124-5.982-2.038-8.936,0.159
				c-1.186,0.881-2.352,1.817-3.522,2.737c-1.584,1.245-3.145,2.546-4.75,3.737c-2.97,2.198-5.96,2.101-8.922-0.05
				c-1.121-0.815-2.214-1.709-3.325-2.553c-2.047-1.557-4.045-3.202-6.148-4.604c-0.113-0.075-0.235-0.143-0.363-0.205
				c-0.655,1.491-0.973,2.79-1.332,3.837c-0.656,1.918-1.145,3.896-1.145,5.908c0,0.003,0,0.007,0,0.01
				c2,0.249,4.475,1.743,6.566,3.456c1.6,1.312,3.104,2.596,4.689,3.946c3.797,3.233,7.522,3.195,11.314,0.004
				c0.781-0.653,1.532-1.302,2.321-1.935c1.542-1.239,3.05-2.523,4.625-3.682c2.988-2.201,6.042-2.281,9.04-0.093
				c2.455,1.788,4.852,3.719,7.234,5.676c3.889,3.195,7.723,3.282,11.605-0.021c0.105-0.09,0.214-0.174,0.319-0.264
				c0.139-1.152,0.218-2.322,0.218-3.512c0-2.251-0.261-4.473-0.762-6.638C-657.658,690.616-661.444,690.582-665.312,687.331z"/>
			<path fill="#54AACC" d="M-665.144,707.803c-2.142-1.771-4.32-3.467-6.49-5.175c-3.564-2.81-7.123-2.775-10.659,0.106
				c-1.675,1.363-3.396,2.637-4.995,4.139c-4.567,4.281-9.063,4.366-13.681,0.106c-2.004-1.847-4.131-3.482-6.296-4.97
				c-1.093-0.752-2.337-1.117-3.725-1.673c1.95,9.145,8.181,16.716,16.487,20.521c1.686,0.095,3.374-0.484,5.052-1.78
				c2.252-1.737,4.473-3.547,6.671-5.396c3.868-3.254,7.725-3.335,11.621-0.109c1.874,1.554,3.784,3.031,5.662,4.576
				c3.102-2.191,5.758-4.969,7.811-8.171C-660.168,710.598-662.647,709.869-665.144,707.803z"/>
			<path fill="#54AACC" d="M-701.142,676.688c4.536,4.242,9.032,4.565,13.656,0.204c1.825-1.721,3.791-3.182,5.734-4.664
				c3.124-2.387,6.313-2.497,9.475-0.143c2.127,1.586,4.272,3.16,6.291,4.976c3.114,2.805,6.168,3.582,9.199,2.479
				c-1.36-2.982-3.159-6.609-5.218-10.592c-0.965-0.382-1.924-0.94-2.875-1.679c-2.729-2.118-5.427-4.316-8.218-6.277
				c-2.528-1.777-5.165-1.673-7.725,0.035c-1.179,0.784-2.323,1.661-3.459,2.552c-1.726,1.35-3.418,2.771-5.142,4.115
				c-3.14,2.441-6.307,2.441-9.45,0.038c-0.761-0.581-1.512-1.184-2.263-1.787c-1.388,2.641-2.69,5.169-3.855,7.502
				C-703.661,674.413-702.383,675.527-701.142,676.688z"/>
		</g>
	</g>
</g>
<rect x="-2284" y="722" fill="#444444" width="27" height="27"/>
<rect x="-2284" y="762" fill="#5275CC" width="27" height="27"/>
<rect x="-2284" y="803" fill="#54AACC" width="27" height="27"/>
<text transform="matrix(1 0 0 1 -2234.9995 745)" font-family="'MyriadPro-Regular'" font-size="21">#444444</text>
<text transform="matrix(1 0 0 1 -2234.9995 822.5)" font-family="'MyriadPro-Regular'" font-size="21">#54AACC</text>
<text transform="matrix(1 0 0 1 -2234.9995 782)" font-family="'MyriadPro-Regular'" font-size="21">#5275CC</text>
<g>
	<g>
		<linearGradient id="SVGID_1_" gradientUnits="userSpaceOnUse" x1="-1349.5" y1="77" x2="-896.5" y2="77">
			<stop  offset="0" style="stop-color:#5275CC"/>
			<stop  offset="1" style="stop-color:#54AACC"/>
		</linearGradient>
		<path fill="url(#SVGID_1_)" d="M-1123,303.5c-60.5,0-117.379-23.56-160.16-66.34S-1349.5,137.5-1349.5,77
			s23.56-117.379,66.34-160.16S-1183.5-149.5-1123-149.5s117.379,23.56,160.16,66.34S-896.5,16.5-896.5,77
			s-23.56,117.379-66.34,160.16S-1062.5,303.5-1123,303.5z M-1123-130.5c-114.416,0-207.5,93.084-207.5,207.5
			s93.084,207.5,207.5,207.5S-915.5,191.416-915.5,77S-1008.584-130.5-1123-130.5z"/>
	</g>
	<g>
		<path fill="#5275CC" d="M-1245.673,10.586h14.479v47.971h53.204V10.586h14.653v114.434h-14.653V71.118h-53.204v53.902h-14.479
			V10.586z"/>
		<path fill="#5275CC" d="M-1155.028,157.161c6.965-6.964,13.153-13.251,18.572-18.862c5.416-5.608,9.961-10.81,13.638-15.597
			c3.675-4.788,6.48-9.187,8.416-13.203c1.933-4.011,2.902-7.906,2.902-11.679c0-5.319-1.45-9.671-4.353-13.06
			c-2.902-3.384-7.304-5.078-13.203-5.078c-3.87,0-7.449,1.088-10.737,3.265c-3.288,2.176-6.289,4.812-8.994,7.907l-6.819-6.82
			c3.868-4.254,7.979-7.664,12.332-10.228c4.353-2.561,9.576-3.844,15.67-3.844c8.608,0,15.379,2.49,20.313,7.471
			c4.932,4.984,7.399,11.584,7.399,19.804c0,4.354-0.943,8.731-2.83,13.131c-1.886,4.402-4.498,8.948-7.835,13.639
			c-3.336,4.692-7.304,9.576-11.897,14.653c-4.595,5.078-9.648,10.473-15.162,16.178c2.514-0.193,5.125-0.386,7.835-0.581
			c2.707-0.192,5.271-0.292,7.69-0.292h26.841v10.303h-59.776V157.161z"/>
		<g>
			<path fill="#54AACC" d="M-1047.312,132.278c-26.97,0-48.911-21.942-48.911-48.915c0-5.429,0.884-10.764,2.63-15.856
				c5.809-16.954,38.856-73.457,40.259-75.854l6.021-10.278l6.02,10.277c1.405,2.398,34.461,58.903,40.266,75.864
				c1.743,5.089,2.628,10.423,2.628,15.847C-998.398,110.335-1020.342,132.278-1047.312,132.278z M-1047.312,9.104
				c-11.388,19.851-29.394,52.168-33.079,62.924c-1.246,3.635-1.876,7.448-1.876,11.334c0,19.277,15.681,34.958,34.956,34.958
				c19.275,0,34.959-15.681,34.959-34.958c0-3.882-0.632-7.693-1.877-11.325C-1017.914,61.273-1035.921,28.956-1047.312,9.104z"/>
			<g opacity="0.1">
				<path fill="#54AACC" d="M-1026.97,75.138c-2.827-2.377-5.705-4.652-8.648-6.76c-3.534-2.536-7.141-2.433-10.666,0.19
					c-1.416,1.051-2.807,2.169-4.205,3.268c-1.891,1.486-3.754,3.039-5.67,4.461c-3.545,2.624-7.115,2.507-10.65-0.06
					c-1.338-0.974-2.643-2.04-3.969-3.047c-2.444-1.858-4.829-3.822-7.34-5.497c-0.135-0.089-0.281-0.17-0.434-0.245
					c-0.782,1.78-0.906,3.331-1.335,4.58c-0.784,2.289-1.112,4.65-1.112,7.053c0,0.003,0,0.008,0,0.011
					c2,0.298,5.087,2.081,7.585,4.125c1.908,1.566,3.578,3.099,5.47,4.711c4.532,3.86,8.916,3.814,13.442,0.005
					c0.933-0.78,1.797-1.554,2.739-2.31c1.841-1.479,3.625-3.012,5.505-4.395c3.567-2.627,7.205-2.723,10.783-0.11
					c2.931,2.135,5.787,4.439,8.631,6.775c4.642,3.814,9.216,3.918,13.851-0.025c0.126-0.107,0.255-0.207,0.38-0.314
					c0.167-1.375,0.26-2.772,0.26-4.192c0-2.687-0.312-5.339-0.91-7.924C-1017.834,79.059-1022.354,79.019-1026.97,75.138z"/>
				<path fill="#54AACC" d="M-1026.77,99.575c-2.557-2.115-5.157-4.138-7.747-6.177c-4.255-3.354-8.503-3.313-12.724,0.127
					c-1.999,1.627-4.053,3.147-5.962,4.94c-5.452,5.111-10.819,5.212-16.331,0.127c-2.392-2.205-4.931-4.157-7.515-5.933
					c-1.305-0.897-2.79-1.333-4.446-1.997c2.329,10.916,9.766,19.954,19.681,24.495c2.012,0.113,4.027-0.578,6.03-2.125
					c2.688-2.074,5.339-4.234,7.963-6.44c4.617-3.884,9.221-3.981,13.872-0.131c2.237,1.854,4.517,3.618,6.759,5.462
					c3.702-2.616,6.873-5.931,9.323-9.753C-1020.831,102.912-1023.79,102.042-1026.77,99.575z"/>
				<path fill="#54AACC" d="M-1069.74,62.433c5.415,5.064,10.782,5.45,16.302,0.244c2.178-2.054,4.525-3.798,6.845-5.567
					c3.729-2.849,7.536-2.98,11.31-0.17c2.539,1.894,5.1,3.772,7.51,5.939c3.717,3.348,7.362,4.276,10.981,2.96
					c-1.624-3.561-3.771-7.89-6.229-12.644c-1.152-0.456-2.297-1.123-3.432-2.004c-3.257-2.528-6.479-5.153-9.81-7.493
					c-3.018-2.122-6.166-1.997-9.221,0.042c-1.407,0.936-2.773,1.983-4.128,3.046c-2.06,1.611-4.08,3.307-6.138,4.913
					c-3.748,2.914-7.528,2.914-11.28,0.045c-0.908-0.693-1.804-1.413-2.701-2.133c-1.656,3.152-3.212,6.17-4.603,8.955
					C-1072.748,59.718-1071.222,61.048-1069.74,62.433z"/>
			</g>
		</g>
	</g>
</g>
<g>
	<path fill="#5275CC" d="M-1756.673-155.414h14.479v47.971h53.204v-47.971h14.653v114.434h-14.653v-53.902h-53.204v53.902h-14.479
		V-155.414z"/>
	<path fill="#5275CC" d="M-1666.028-8.839c6.965-6.964,13.153-13.251,18.572-18.862c5.416-5.608,9.961-10.81,13.638-15.597
		c3.675-4.788,6.48-9.187,8.416-13.203c1.933-4.011,2.902-7.906,2.902-11.679c0-5.319-1.45-9.671-4.353-13.06
		c-2.902-3.384-7.304-5.078-13.203-5.078c-3.87,0-7.449,1.088-10.737,3.265c-3.288,2.176-6.289,4.812-8.994,7.907l-6.819-6.82
		c3.868-4.254,7.979-7.664,12.332-10.228c4.353-2.561,9.576-3.844,15.67-3.844c8.608,0,15.379,2.49,20.313,7.471
		c4.932,4.984,7.399,11.584,7.399,19.804c0,4.354-0.943,8.731-2.83,13.131c-1.886,4.402-4.498,8.948-7.835,13.639
		c-3.336,4.692-7.304,9.576-11.897,14.653c-4.595,5.078-9.648,10.473-15.162,16.178c2.514-0.193,5.125-0.386,7.835-0.581
		c2.707-0.192,5.271-0.292,7.69-0.292h26.841V-1.73h-59.776V-8.839z"/>
	<g>
		<path fill="#54AACC" d="M-1550.312-33.722c-26.97,0-48.911-21.942-48.911-48.915c0-5.429,0.884-10.764,2.63-15.856
			c5.809-16.954,38.856-73.457,40.259-75.854l6.021-10.278l6.02,10.277c1.405,2.398,34.461,58.903,40.266,75.864
			c1.743,5.089,2.628,10.423,2.628,15.847C-1501.398-55.665-1523.342-33.722-1550.312-33.722z M-1550.312-156.896
			c-11.388,19.851-29.394,52.168-33.079,62.924c-1.246,3.635-1.876,7.448-1.876,11.334c0,19.277,15.681,34.958,34.956,34.958
			c19.275,0,34.959-15.681,34.959-34.958c0-3.882-0.632-7.693-1.877-11.325C-1520.914-104.727-1538.921-137.044-1550.312-156.896z"
			/>
		<g opacity="0.1">
			<path fill="#54AACC" d="M-1529.97-90.862c-2.827-2.377-5.705-4.652-8.648-6.76c-3.534-2.536-7.141-2.433-10.666,0.19
				c-1.416,1.051-2.807,2.169-4.205,3.268c-1.891,1.486-3.754,3.039-5.67,4.461c-3.545,2.624-7.115,2.507-10.65-0.06
				c-1.338-0.974-2.643-2.04-3.969-3.047c-2.444-1.858-4.829-3.822-7.34-5.497c-0.135-0.089-0.281-0.17-0.434-0.245
				c-0.782,1.78-0.906,3.331-1.335,4.58c-0.784,2.289-1.112,4.65-1.112,7.053c0,0.003,0,0.008,0,0.011
				c2,0.298,5.087,2.081,7.585,4.125c1.908,1.566,3.578,3.099,5.47,4.711c4.532,3.86,8.916,3.814,13.442,0.005
				c0.933-0.78,1.797-1.554,2.739-2.31c1.841-1.479,3.625-3.012,5.505-4.395c3.567-2.627,7.205-2.723,10.783-0.11
				c2.931,2.135,5.787,4.439,8.631,6.775c4.642,3.814,9.216,3.918,13.851-0.025c0.126-0.107,0.255-0.207,0.38-0.314
				c0.167-1.375,0.26-2.772,0.26-4.192c0-2.687-0.312-5.339-0.91-7.924C-1520.834-86.941-1525.354-86.981-1529.97-90.862z"/>
			<path fill="#54AACC" d="M-1529.77-66.425c-2.557-2.115-5.157-4.138-7.747-6.177c-4.255-3.354-8.503-3.313-12.724,0.127
				c-1.999,1.627-4.053,3.147-5.962,4.94c-5.452,5.111-10.819,5.212-16.331,0.127c-2.392-2.205-4.931-4.157-7.515-5.933
				c-1.305-0.897-2.79-1.333-4.446-1.997c2.329,10.916,9.766,19.954,19.681,24.495c2.012,0.113,4.027-0.578,6.03-2.125
				c2.688-2.074,5.339-4.234,7.963-6.44c4.617-3.884,9.221-3.981,13.872-0.131c2.237,1.854,4.517,3.618,6.759,5.462
				c3.702-2.616,6.873-5.931,9.323-9.753C-1523.831-63.088-1526.79-63.958-1529.77-66.425z"/>
			<path fill="#54AACC" d="M-1572.74-103.567c5.415,5.064,10.782,5.45,16.302,0.244c2.178-2.054,4.525-3.798,6.845-5.567
				c3.729-2.849,7.536-2.98,11.31-0.17c2.539,1.894,5.1,3.772,7.51,5.939c3.717,3.348,7.362,4.276,10.981,2.96
				c-1.624-3.561-3.771-7.89-6.229-12.644c-1.152-0.456-2.297-1.123-3.432-2.004c-3.257-2.528-6.479-5.153-9.81-7.493
				c-3.018-2.122-6.166-1.997-9.221,0.042c-1.407,0.936-2.773,1.983-4.128,3.046c-2.06,1.611-4.08,3.307-6.138,4.913
				c-3.748,2.914-7.528,2.914-11.28,0.045c-0.908-0.693-1.804-1.413-2.701-2.133c-1.656,3.152-3.212,6.17-4.603,8.955
				C-1575.748-106.282-1574.222-104.952-1572.74-103.567z"/>
		</g>
	</g>
	<g>
		<path fill="#444444" d="M-1731.919,72.811v15.012h-3.774V28.032h3.26l0.343,5.147h0.257c2.001-1.601,4.188-3.031,6.562-4.289
			c2.373-1.257,4.847-1.888,7.42-1.888c5.49,0,9.608,1.902,12.353,5.705c2.745,3.804,4.118,8.908,4.118,15.312
			c0,3.489-0.487,6.605-1.458,9.35c-0.973,2.745-2.303,5.076-3.989,6.992c-1.688,1.917-3.632,3.375-5.833,4.375
			c-2.202,1-4.504,1.501-6.906,1.501c-1.945,0-3.946-0.443-6.005-1.33c-2.059-0.886-4.175-2.13-6.348-3.731V72.811z
			 M-1731.919,61.573c2.402,1.945,4.632,3.317,6.691,4.118c2.059,0.801,3.888,1.201,5.49,1.201c2.059,0,3.974-0.457,5.748-1.373
			c1.772-0.914,3.288-2.201,4.546-3.86c1.257-1.658,2.244-3.646,2.959-5.962c0.714-2.316,1.072-4.875,1.072-7.677
			c0-2.516-0.244-4.86-0.729-7.035c-0.486-2.173-1.244-4.045-2.273-5.619c-1.029-1.572-2.374-2.801-4.032-3.689
			c-1.659-0.886-3.661-1.33-6.005-1.33c-2.059,0-4.19,0.587-6.391,1.759c-2.202,1.173-4.561,2.846-7.077,5.018V61.573z"/>
		<path fill="#444444" d="M-1692.459,48.706c0-3.431,0.5-6.505,1.501-9.222c1-2.716,2.344-4.989,4.032-6.82
			c1.687-1.83,3.646-3.23,5.876-4.204c2.23-0.972,4.575-1.458,7.034-1.458c2.458,0,4.817,0.487,7.077,1.458
			c2.259,0.973,4.232,2.374,5.919,4.204c1.686,1.831,3.03,4.104,4.032,6.82c1,2.717,1.501,5.791,1.501,9.222
			s-0.501,6.477-1.501,9.136c-1.001,2.659-2.346,4.904-4.032,6.734c-1.688,1.831-3.661,3.231-5.919,4.204
			c-2.26,0.972-4.619,1.458-7.077,1.458c-2.459,0-4.804-0.486-7.034-1.458c-2.23-0.972-4.19-2.373-5.876-4.204
			c-1.688-1.83-3.032-4.075-4.032-6.734C-1691.959,55.182-1692.459,52.137-1692.459,48.706z M-1688.513,48.706
			c0,2.689,0.372,5.147,1.115,7.377c0.743,2.23,1.759,4.147,3.045,5.748c1.287,1.602,2.816,2.846,4.589,3.731
			c1.772,0.888,3.689,1.33,5.748,1.33c2.059,0,3.989-0.442,5.791-1.33c1.801-0.886,3.346-2.13,4.632-3.731
			c1.287-1.601,2.301-3.517,3.045-5.748c0.743-2.23,1.115-4.688,1.115-7.377c0-2.745-0.373-5.233-1.115-7.463
			c-0.744-2.23-1.759-4.16-3.045-5.79c-1.287-1.63-2.831-2.887-4.632-3.775c-1.801-0.886-3.731-1.33-5.791-1.33
			c-2.059,0-3.976,0.444-5.748,1.33c-1.773,0.888-3.303,2.145-4.589,3.775c-1.287,1.63-2.303,3.56-3.045,5.79
			C-1688.142,43.473-1688.513,45.96-1688.513,48.706z"/>
		<path fill="#444444" d="M-1641.161,18.081c-0.973,0-1.788-0.313-2.445-0.943c-0.658-0.629-0.987-1.429-0.987-2.402
			c0-1.085,0.329-1.93,0.987-2.53c0.657-0.601,1.472-0.901,2.445-0.901c0.972,0,1.787,0.3,2.445,0.901
			c0.657,0.6,0.986,1.445,0.986,2.53c0,0.973-0.33,1.773-0.986,2.402C-1639.375,17.767-1640.189,18.081-1641.161,18.081z
			 M-1643.134,28.032h3.774v41.176h-3.774V28.032z"/>
		<path fill="#444444" d="M-1623.491,28.032h3.26l0.343,6.348h0.257c2.115-2.115,4.289-3.874,6.52-5.275
			c2.23-1.401,4.774-2.102,7.635-2.102c4.29,0,7.434,1.287,9.437,3.86c2.001,2.574,3.002,6.549,3.002,11.924v26.421h-3.774V43.301
			c0-4.403-0.729-7.648-2.188-9.737c-1.458-2.087-3.875-3.131-7.249-3.131c-2.459,0-4.69,0.644-6.691,1.93
			c-2.003,1.287-4.261,3.217-6.777,5.791v31.054h-3.774V28.032z"/>
		<path fill="#444444" d="M-1576.91,31.292h-6.434v-2.917l6.52-0.343l0.515-11.924h3.26v11.924h11.924v3.26h-11.924v26.85
			c0,1.316,0.099,2.503,0.3,3.56c0.2,1.059,0.558,1.973,1.073,2.745c0.515,0.772,1.214,1.373,2.102,1.802
			c0.886,0.429,2.044,0.643,3.474,0.643c0.8,0,1.673-0.128,2.617-0.386c0.943-0.257,1.787-0.558,2.53-0.901l1.03,3.088
			c-1.201,0.458-2.402,0.828-3.603,1.115c-1.201,0.286-2.23,0.429-3.088,0.429c-2.002,0-3.661-0.3-4.976-0.9
			c-1.316-0.601-2.374-1.444-3.174-2.531c-0.802-1.086-1.359-2.402-1.673-3.946c-0.315-1.544-0.472-3.23-0.472-5.061V31.292z"/>
		<path fill="#444444" d="M-1554.006,61.745c1.772,1.488,3.659,2.732,5.662,3.732c2.001,1.001,4.489,1.501,7.463,1.501
			c3.26,0,5.705-0.815,7.334-2.445s2.445-3.53,2.445-5.705c0-1.257-0.3-2.373-0.901-3.346c-0.601-0.972-1.387-1.801-2.359-2.488
			c-0.973-0.686-2.045-1.287-3.217-1.801c-1.173-0.515-2.359-1-3.56-1.458c-1.544-0.571-3.103-1.171-4.675-1.801
			c-1.574-0.629-2.989-1.386-4.247-2.273c-1.258-0.886-2.273-1.943-3.045-3.174c-0.772-1.229-1.158-2.73-1.158-4.504
			c0-1.486,0.285-2.902,0.858-4.246c0.571-1.343,1.429-2.516,2.573-3.517c1.144-1,2.531-1.787,4.161-2.359
			c1.63-0.571,3.531-0.858,5.705-0.858c2.173,0,4.303,0.401,6.391,1.201c2.087,0.802,3.874,1.831,5.361,3.088l-2.059,2.659
			c-1.373-1.029-2.831-1.901-4.375-2.616c-1.544-0.715-3.375-1.072-5.49-1.072c-1.602,0-2.975,0.214-4.118,0.643
			c-1.145,0.429-2.102,0.987-2.874,1.673c-0.772,0.687-1.344,1.488-1.715,2.402c-0.373,0.916-0.558,1.831-0.558,2.745
			c0,1.201,0.271,2.217,0.815,3.045c0.542,0.83,1.272,1.559,2.188,2.188c0.914,0.63,1.958,1.188,3.131,1.673
			c1.171,0.486,2.359,0.958,3.56,1.416c1.601,0.63,3.202,1.258,4.804,1.887c1.6,0.63,3.045,1.402,4.332,2.316
			c1.287,0.916,2.33,2.045,3.131,3.389c0.8,1.344,1.201,3.017,1.201,5.019c0,1.544-0.3,3.017-0.901,4.417
			c-0.601,1.402-1.501,2.631-2.702,3.689c-1.201,1.059-2.659,1.902-4.375,2.531c-1.716,0.628-3.688,0.943-5.919,0.943
			c-3.088,0-5.919-0.558-8.493-1.673c-2.574-1.115-4.776-2.445-6.605-3.989L-1554.006,61.745z"/>
	</g>
</g>
<g>
	<g>
		<linearGradient id="SVGID_2_" gradientUnits="userSpaceOnUse" x1="-749.5" y1="29" x2="-296.5" y2="29">
			<stop  offset="0" style="stop-color:#5275CC"/>
			<stop  offset="1" style="stop-color:#54AACC"/>
		</linearGradient>
		<path fill="url(#SVGID_2_)" d="M-523,255.5c-60.5,0-117.379-23.56-160.16-66.34C-725.94,146.379-749.5,89.5-749.5,29
			s23.56-117.379,66.34-160.16c42.781-42.78,99.66-66.34,160.16-66.34s117.379,23.56,160.16,66.34
			C-320.061-88.379-296.5-31.5-296.5,29s-23.561,117.379-66.34,160.16C-405.621,231.94-462.5,255.5-523,255.5z M-523-178.5
			c-114.416,0-207.5,93.084-207.5,207.5s93.084,207.5,207.5,207.5S-315.5,143.416-315.5,29S-408.584-178.5-523-178.5z"/>
	</g>
	<g>
		<path fill="#5275CC" d="M-669.673-37.414h14.479v47.971h53.203v-47.971h14.652V77.021h-14.652V23.118h-53.203v53.902h-14.479
			V-37.414z"/>
		<path fill="#5275CC" d="M-579.028,109.161c6.965-6.964,13.153-13.251,18.571-18.862c5.416-5.608,9.962-10.81,13.639-15.597
			c3.674-4.788,6.479-9.187,8.415-13.203c1.933-4.011,2.901-7.906,2.901-11.679c0-5.319-1.449-9.671-4.353-13.06
			c-2.901-3.384-7.304-5.078-13.203-5.078c-3.87,0-7.449,1.088-10.737,3.265c-3.287,2.176-6.288,4.812-8.994,7.907l-6.818-6.82
			c3.867-4.254,7.979-7.664,12.331-10.228c4.353-2.561,9.576-3.844,15.67-3.844c8.608,0,15.38,2.49,20.313,7.471
			c4.932,4.984,7.398,11.584,7.398,19.804c0,4.354-0.943,8.731-2.83,13.131c-1.885,4.402-4.497,8.948-7.834,13.639
			c-3.337,4.692-7.305,9.576-11.897,14.653c-4.595,5.078-9.647,10.473-15.161,16.178c2.514-0.193,5.125-0.386,7.834-0.581
			c2.707-0.192,5.271-0.292,7.69-0.292h26.841v10.303h-59.776V109.161z"/>
		<g>
			<path fill="#54AACC" d="M-409.312,90.278c-26.97,0-48.91-21.942-48.91-48.915c0-5.429,0.884-10.764,2.629-15.856
				c5.809-16.954,38.856-73.457,40.26-75.854l6.021-10.278l6.02,10.277c1.406,2.398,34.462,58.903,40.266,75.864
				c1.743,5.089,2.629,10.423,2.629,15.847C-360.398,68.335-382.342,90.278-409.312,90.278z M-409.312-32.896
				c-11.387,19.851-29.393,52.168-33.078,62.924c-1.246,3.635-1.877,7.448-1.877,11.334c0,19.277,15.681,34.958,34.955,34.958
				c19.275,0,34.959-15.681,34.959-34.958c0-3.882-0.631-7.693-1.877-11.325C-379.914,19.273-397.922-13.044-409.312-32.896z"/>
			<g opacity="0.1">
				<path fill="#54AACC" d="M-388.971,33.138c-2.826-2.377-5.704-4.652-8.648-6.76c-3.533-2.536-7.141-2.433-10.666,0.19
					c-1.415,1.051-2.807,2.169-4.204,3.268c-1.892,1.486-3.754,3.039-5.671,4.461c-3.545,2.624-7.114,2.507-10.649-0.06
					c-1.339-0.974-2.644-2.04-3.97-3.047c-2.443-1.858-4.828-3.822-7.34-5.497c-0.135-0.089-0.28-0.17-0.434-0.245
					c-0.781,1.78-0.906,3.331-1.335,4.58c-0.784,2.289-1.112,4.65-1.112,7.053c0,0.003,0,0.008,0,0.011
					c2,0.298,5.087,2.081,7.585,4.125c1.908,1.566,3.578,3.099,5.47,4.711c4.533,3.86,8.916,3.814,13.443,0.005
					c0.932-0.78,1.797-1.554,2.738-2.31c1.841-1.479,3.625-3.012,5.506-4.395c3.566-2.627,7.204-2.723,10.783-0.11
					c2.93,2.135,5.787,4.439,8.631,6.775c4.643,3.814,9.217,3.918,13.852-0.025c0.125-0.107,0.254-0.207,0.38-0.314
					c0.167-1.375,0.26-2.772,0.26-4.192c0-2.687-0.312-5.339-0.909-7.924C-379.834,37.059-384.354,37.019-388.971,33.138z"/>
				<path fill="#54AACC" d="M-388.77,57.575c-2.557-2.115-5.157-4.138-7.747-6.177c-4.255-3.354-8.503-3.313-12.724,0.127
					c-2,1.627-4.054,3.147-5.963,4.94c-5.452,5.111-10.819,5.212-16.331,0.127c-2.392-2.205-4.931-4.157-7.515-5.933
					c-1.305-0.897-2.791-1.333-4.447-1.997c2.329,10.916,9.766,19.954,19.682,24.495c2.012,0.113,4.027-0.578,6.03-2.125
					c2.688-2.074,5.339-4.234,7.963-6.44c4.617-3.884,9.221-3.981,13.872-0.131c2.236,1.854,4.518,3.618,6.76,5.462
					c3.701-2.616,6.872-5.931,9.322-9.753C-382.83,60.912-385.79,60.042-388.77,57.575z"/>
				<path fill="#54AACC" d="M-431.74,20.433c5.415,5.064,10.781,5.45,16.302,0.244c2.179-2.054,4.524-3.798,6.845-5.567
					c3.729-2.849,7.536-2.98,11.31-0.17c2.539,1.894,5.101,3.772,7.51,5.939c3.718,3.348,7.362,4.276,10.981,2.96
					c-1.624-3.561-3.771-7.89-6.229-12.644c-1.152-0.456-2.297-1.123-3.432-2.004c-3.258-2.528-6.479-5.153-9.811-7.493
					c-3.018-2.122-6.165-1.997-9.221,0.042c-1.406,0.936-2.773,1.983-4.129,3.046c-2.06,1.611-4.08,3.307-6.138,4.913
					c-3.747,2.914-7.528,2.914-11.28,0.045c-0.908-0.693-1.805-1.413-2.701-2.133c-1.656,3.152-3.211,6.17-4.602,8.955
					C-434.748,17.718-433.222,19.048-431.74,20.433z"/>
			</g>
		</g>
		<path fill="#777777" d="M-508.563,92.514v23.12h-5.812V23.549h5.021l0.527,7.927h0.395c3.084-2.465,6.452-4.667,10.107-6.605
			c3.655-1.936,7.465-2.907,11.429-2.907c8.456,0,14.798,2.93,19.023,8.786c4.229,5.858,6.343,13.719,6.343,23.582
			c0,5.374-0.751,10.173-2.245,14.401c-1.5,4.228-3.546,7.818-6.146,10.768c-2.6,2.952-5.594,5.198-8.981,6.738
			c-3.394,1.539-6.937,2.312-10.637,2.312c-2.996,0-6.077-0.683-9.249-2.048c-3.169-1.364-6.429-3.28-9.776-5.747V92.514z
			 M-508.563,75.206c3.7,2.996,7.135,5.109,10.305,6.342c3.171,1.234,5.99,1.849,8.456,1.849c3.17,0,6.121-0.705,8.853-2.114
			c2.729-1.407,5.063-3.389,7.003-5.943c1.937-2.554,3.454-5.616,4.557-9.184c1.101-3.567,1.651-7.507,1.651-11.824
			c0-3.875-0.376-7.485-1.121-10.833c-0.75-3.347-1.917-6.229-3.502-8.653c-1.585-2.421-3.655-4.314-6.209-5.682
			c-2.557-1.364-5.64-2.047-9.249-2.047c-3.17,0-6.453,0.905-9.842,2.708c-3.394,1.807-7.026,4.383-10.901,7.729V75.206z"/>
	</g>
</g>
<g>
	<g>
		<linearGradient id="SVGID_3_" gradientUnits="userSpaceOnUse" x1="14.666" y1="60.1387" x2="105.4971" y2="60.1387">
			<stop  offset="0" style="stop-color:#5275CC"/>
			<stop  offset="1" style="stop-color:#54AACC"/>
		</linearGradient>
		<path fill="url(#SVGID_3_)" d="M60.082,104.61c-12.132,0-23.535-4.626-32.113-13.026c-8.578-8.399-13.303-19.567-13.303-31.446
			c0-11.878,4.725-23.046,13.303-31.446S47.95,15.667,60.082,15.667c12.131,0,23.535,4.625,32.113,13.025
			s13.302,19.568,13.302,31.446c0,11.879-4.724,23.047-13.302,31.446C83.617,99.984,72.213,104.61,60.082,104.61z M60.082,19.397
			c-22.941,0-41.606,18.277-41.606,40.741c0,22.465,18.665,40.741,41.606,40.741c22.94,0,41.605-18.276,41.605-40.741
			C101.688,37.674,83.022,19.397,60.082,19.397z"/>
	</g>
	<g>
		<path fill="#5275CC" d="M30.673,47.098h2.903v9.419h10.666v-9.419h2.939v22.469h-2.939V58.984H33.576v10.583h-2.903V47.098z"/>
		<path fill="#5275CC" d="M48.848,75.877c1.396-1.367,2.638-2.602,3.724-3.704c1.086-1.101,1.997-2.123,2.734-3.062
			c0.736-0.94,1.3-1.804,1.688-2.592c0.386-0.788,0.58-1.553,0.58-2.293c0-1.044-0.29-1.898-0.872-2.564
			c-0.581-0.665-1.464-0.997-2.647-0.997c-0.776,0-1.493,0.214-2.152,0.641c-0.66,0.428-1.262,0.945-1.805,1.553l-1.366-1.339
			c0.775-0.835,1.601-1.504,2.472-2.008c0.873-0.502,1.921-0.754,3.143-0.754c1.727,0,3.084,0.489,4.073,1.467
			c0.989,0.979,1.483,2.274,1.483,3.888c0,0.855-0.189,1.714-0.567,2.578c-0.378,0.865-0.901,1.757-1.571,2.678
			c-0.669,0.921-1.464,1.88-2.385,2.877c-0.922,0.997-1.935,2.056-3.04,3.176c0.503-0.038,1.027-0.076,1.571-0.114
			c0.542-0.038,1.056-0.057,1.541-0.057h5.383v2.022H48.848V75.877z"/>
		<g>
			<path fill="#54AACC" d="M82.877,72.169c-5.407,0-9.807-4.308-9.807-9.604c0-1.066,0.178-2.113,0.526-3.113
				c1.165-3.329,7.791-14.423,8.073-14.894l1.207-2.018l1.207,2.018c0.282,0.471,6.91,11.565,8.074,14.896
				c0.35,0.999,0.526,2.046,0.526,3.111C92.685,67.861,88.285,72.169,82.877,72.169z M82.877,47.986
				c-2.283,3.897-5.894,10.243-6.633,12.354c-0.249,0.713-0.376,1.462-0.376,2.226c0,3.785,3.145,6.864,7.009,6.864
				c3.865,0,7.01-3.079,7.01-6.864c0-0.763-0.127-1.511-0.377-2.224C88.771,58.229,85.161,51.883,82.877,47.986z"/>
			<g opacity="0.1">
				<path fill="#54AACC" d="M86.955,60.951c-0.566-0.466-1.143-0.913-1.733-1.327c-0.708-0.498-1.432-0.478-2.14,0.037
					c-0.283,0.207-0.562,0.426-0.842,0.642c-0.379,0.292-0.752,0.597-1.137,0.876c-0.712,0.515-1.427,0.492-2.136-0.012
					c-0.269-0.191-0.53-0.401-0.796-0.598c-0.49-0.366-0.969-0.75-1.472-1.08c-0.026-0.018-0.056-0.034-0.087-0.048
					c-0.156,0.349-0.744,0.653-0.83,0.899C75.627,60.79,75,61.253,75,61.725c0,0.001,0,0.002,0,0.002c1,0.059,1.58,0.409,2.082,0.81
					c0.383,0.308,0.998,0.608,1.377,0.925c0.908,0.758,1.928,0.749,2.836,0.001c0.187-0.153,0.432-0.305,0.619-0.454
					c0.369-0.291,0.762-0.591,1.14-0.863c0.715-0.516,1.461-0.535,2.18-0.022c0.587,0.419,1.169,0.872,1.739,1.331
					c0.93,0.749,1.853,0.769,2.781-0.005c0.025-0.021,0.052-0.04,0.078-0.062c0.033-0.27,0.055-0.544,0.055-0.823
					c0-0.528-0.062-1.048-0.182-1.556C88.788,61.721,87.882,61.713,86.955,60.951z"/>
				<path fill="#54AACC" d="M86.996,65.749c-0.512-0.416-1.034-0.812-1.554-1.213c-0.853-0.658-1.704-0.65-2.55,0.025
					c-0.401,0.319-0.814,0.618-1.197,0.97c-1.092,1.003-2.169,1.023-3.273,0.025c-0.479-0.433-0.989-0.816-1.506-1.165
					c-0.264-0.176-0.561-0.262-0.894-0.392c0.468,2.143,1.959,3.918,3.947,4.81c0.403,0.022,0.807-0.114,1.209-0.417
					c0.538-0.407,1.069-0.831,1.597-1.264c0.926-0.763,1.849-0.782,2.781-0.026c0.449,0.364,0.906,0.71,1.355,1.072
					c0.741-0.514,1.378-1.164,1.869-1.915C88.188,66.404,87.594,66.233,86.996,65.749z"/>
				<path fill="#54AACC" d="M78.38,58.456c1.085,0.994,2.161,1.07,3.269,0.048c0.438-0.403,0.907-0.746,1.373-1.093
					c0.748-0.559,1.512-0.585,2.268-0.033c0.508,0.372,1.022,0.741,1.506,1.166c0.745,0.657,1.477,0.839,2.201,0.582
					c-0.324-0.699-0.756-1.549-1.248-2.483c-0.231-0.089-0.461-0.22-0.688-0.393c-0.653-0.497-1.3-1.012-1.967-1.471
					c-0.605-0.417-1.236-0.392-1.849,0.008c-0.282,0.184-0.557,0.39-0.828,0.598c-0.414,0.316-0.817,0.649-1.231,0.965
					c-0.751,0.572-1.509,0.572-2.261,0.009c-0.184-0.136-0.363-0.277-0.542-0.419c-0.332,0.619-0.644,1.211-0.923,1.758
					C77.777,57.923,78.083,58.184,78.38,58.456z"/>
			</g>
		</g>
		<path fill="#777777" d="M62.977,72.609v4.54h-1.166v-18.08h1.008l0.104,1.556h0.08c0.618-0.484,1.294-0.917,2.027-1.297
			c0.731-0.38,1.495-0.57,2.291-0.57c1.696,0,2.967,0.575,3.814,1.725c0.848,1.15,1.271,2.694,1.271,4.63
			c0,1.055-0.151,1.998-0.45,2.828c-0.301,0.83-0.711,1.535-1.232,2.114c-0.521,0.58-1.121,1.021-1.801,1.323
			s-1.391,0.454-2.132,0.454c-0.601,0-1.22-0.134-1.854-0.402c-0.637-0.268-1.29-0.644-1.961-1.128V72.609z M62.977,69.211
			c0.741,0.588,1.43,1.003,2.065,1.245c0.637,0.242,1.201,0.363,1.696,0.363c0.636,0,1.227-0.138,1.775-0.416
			c0.547-0.276,1.015-0.665,1.403-1.167c0.389-0.501,0.693-1.103,0.914-1.803c0.221-0.701,0.331-1.474,0.331-2.322
			c0-0.761-0.076-1.469-0.225-2.127c-0.15-0.657-0.385-1.222-0.703-1.699c-0.317-0.475-0.732-0.847-1.244-1.115
			c-0.513-0.268-1.131-0.402-1.854-0.402c-0.636,0-1.294,0.178-1.974,0.531c-0.681,0.355-1.409,0.861-2.186,1.518V69.211z"/>
	</g>
</g>
</svg>
