<?xml version="1.0" encoding="utf-8"?>
<!-- Generator: Adobe Illustrator 16.0.0, SVG Export Plug-In . SVG Version: 6.00 Build 0)  -->
<!DOCTYPE svg PUBLIC "-//W3C//DTD SVG 1.1//EN" "http://www.w3.org/Graphics/SVG/1.1/DTD/svg11.dtd">
<svg version="1.1" id="Capa_1" xmlns="http://www.w3.org/2000/svg" xmlns:xlink="http://www.w3.org/1999/xlink" x="0px" y="0px"
	 width="671.385px" height="209.693px" viewBox="0 0 671.385 209.693" enable-background="new 0 0 671.385 209.693"
	 xml:space="preserve">
<g>
	<path fill="#5275CC" d="M0.505,32.799h16.6v55h61v-55h16.8V164h-16.8v-61.801h-61V164h-16.6V32.799z"/>
	<path fill="#5275CC" d="M117.769,200.849c7.985-7.984,15.081-15.192,21.292-21.625c6.209-6.43,11.42-12.394,15.636-17.883
		c4.214-5.488,7.429-10.534,9.648-15.137c2.217-4.601,3.327-9.065,3.327-13.391c0-6.098-1.663-11.088-4.99-14.972
		c-3.327-3.88-8.375-5.822-15.138-5.822c-4.437,0-8.541,1.248-12.31,3.743c-3.771,2.495-7.21,5.518-10.313,9.065l-7.818-7.818
		c4.434-4.879,9.149-8.787,14.14-11.728c4.99-2.937,10.979-4.407,17.965-4.407c9.869,0,17.633,2.855,23.289,8.566
		c5.656,5.713,8.484,13.281,8.484,22.706c0,4.991-1.082,10.01-3.244,15.055c-2.162,5.047-5.157,10.258-8.983,15.637
		c-3.825,5.38-8.374,10.979-13.64,16.801c-5.269,5.821-11.062,12.006-17.383,18.548c2.882-0.221,5.876-0.441,8.982-0.666
		c3.104-0.221,6.043-0.333,8.816-0.333h30.774V209h-68.535V200.849z"/>
	<path d="M217.503,172.4v36h-6V68.399h5.199l0.801,12.399h0.399c4.8-3.865,10.031-7.299,15.7-10.299c5.666-3,11.5-4.5,17.5-4.5
		c12.932,0,22.565,4.434,28.9,13.299c6.33,8.869,9.5,20.701,9.5,35.5c0,8.135-1.135,15.4-3.4,21.801
		c-2.27,6.4-5.334,11.801-9.2,16.199c-3.868,4.4-8.368,7.77-13.5,10.102c-5.134,2.33-10.569,3.5-16.3,3.5
		c-4.669,0-9.469-1.035-14.4-3.102c-4.934-2.064-10-5.031-15.199-8.898V172.4z M217.503,147.6c5.865,4.801,11.365,8.199,16.5,10.199
		c5.131,2,9.631,3,13.5,3c5.199,0,9.965-1.131,14.299-3.398c4.332-2.266,8.101-5.432,11.301-9.5c3.199-4.066,5.666-8.932,7.4-14.602
		c1.73-5.665,2.6-11.83,2.6-18.5c0-6.131-0.568-11.83-1.7-17.1c-1.134-5.266-3-9.831-5.601-13.699c-2.6-3.866-5.969-6.9-10.1-9.101
		c-4.135-2.2-9.135-3.3-15-3.3c-5.068,0-10.3,1.434-15.699,4.3c-5.4,2.868-11.234,7.034-17.5,12.5V147.6z"/>
	<path d="M435.499,44c-1.869,0-3.469-0.632-4.801-1.9c-1.334-1.266-2-2.9-2-4.9c0-2.266,0.666-3.965,2-5.1
		c1.332-1.131,2.932-1.7,4.801-1.7c1.865,0,3.465,0.569,4.8,1.7c1.331,1.135,2,2.834,2,5.1c0,2-0.669,3.635-2,4.9
		C438.964,43.368,437.364,44,435.499,44z M432.299,68.399h6V164h-6V68.399z"/>
	<path d="M466.695,68.399h5.2l0.8,15.2h0.399c5.066-5.066,10.2-9.266,15.4-12.6c5.2-3.332,11.131-5,17.8-5
		c9.866,0,17.132,2.934,21.8,8.799c4.666,5.869,7,15.069,7,27.601V164h-6v-60.801c0-10.666-1.8-18.6-5.399-23.8
		c-3.601-5.2-9.534-7.8-17.8-7.8c-6,0-11.5,1.6-16.5,4.8s-10.569,8-16.7,14.399V164h-6V68.399z"/>
	<path d="M563.893,74h-15.2v-4.801l15.2-0.8l0.8-28h5.2v28h28.399V74h-28.399v65.6c0,3.068,0.231,5.9,0.7,8.5
		c0.465,2.6,1.3,4.834,2.5,6.699c1.199,1.869,2.899,3.336,5.1,4.4c2.2,1.068,5.031,1.6,8.5,1.6c1.865,0,3.932-0.33,6.2-1
		c2.266-0.664,4.331-1.398,6.2-2.199l2,5.199c-2.801,1.07-5.569,1.932-8.301,2.602c-2.734,0.664-4.899,1-6.5,1
		c-4.399,0-8.034-0.67-10.899-2c-2.869-1.332-5.169-3.201-6.9-5.602c-1.734-2.398-2.935-5.299-3.6-8.699
		c-0.669-3.4-1-7.166-1-11.301V74z"/>
	<path d="M609.89,148.4c4,3.469,8.4,6.398,13.2,8.799s10.8,3.6,18,3.6c4,0,7.531-0.564,10.6-1.699
		c3.066-1.131,5.601-2.631,7.601-4.5c2-1.865,3.531-4.031,4.6-6.5c1.065-2.465,1.601-5.031,1.601-7.699
		c0-3.201-0.734-5.967-2.2-8.301c-1.469-2.332-3.335-4.4-5.601-6.2c-2.269-1.8-4.834-3.3-7.699-4.5c-2.869-1.2-5.7-2.331-8.5-3.399
		c-3.734-1.332-7.435-2.732-11.101-4.201c-3.669-1.465-7-3.199-10-5.199s-5.435-4.432-7.3-7.301c-1.869-2.865-2.8-6.365-2.8-10.5
		c0-3.33,0.631-6.5,1.899-9.5c1.266-3,3.166-5.631,5.7-7.899c2.531-2.266,5.666-4.065,9.4-5.399c3.731-1.332,8.065-2,13-2
		c4.8,0,9.531,0.899,14.2,2.699c4.665,1.801,8.73,4.1,12.199,6.9l-3.6,4.8c-3.2-2.399-6.6-4.466-10.2-6.2
		c-3.6-1.73-7.935-2.6-13-2.6c-4,0-7.469,0.534-10.399,1.6c-2.935,1.068-5.335,2.5-7.2,4.301c-1.869,1.799-3.269,3.799-4.2,6
		c-0.935,2.199-1.4,4.5-1.4,6.899c0,2.935,0.666,5.435,2,7.5c1.332,2.069,3.101,3.868,5.301,5.399
		c2.199,1.535,4.665,2.9,7.399,4.101c2.731,1.2,5.565,2.335,8.5,3.399c3.731,1.469,7.531,2.936,11.4,4.4
		c3.865,1.469,7.3,3.234,10.3,5.301c3,2.068,5.466,4.668,7.4,7.799c1.931,3.135,2.899,7.035,2.899,11.701c0,3.469-0.7,6.799-2.1,10
		c-1.4,3.199-3.4,6-6,8.4c-2.601,2.398-5.869,4.334-9.8,5.799c-3.935,1.467-8.369,2.201-13.301,2.201
		c-7.199,0-13.734-1.301-19.6-3.9c-5.869-2.6-10.935-5.701-15.2-9.301L609.89,148.4z"/>
	<g>
		<path fill="#54AACC" d="M356.779,172.32c-30.921,0-56.077-25.158-56.077-56.082c0-6.224,1.014-12.34,3.015-18.18
			c6.66-19.436,44.55-84.219,46.159-86.967l6.902-11.785l6.903,11.784c1.61,2.748,39.51,67.533,46.165,86.979
			c1.999,5.836,3.014,11.95,3.014,18.169C412.86,147.162,387.702,172.32,356.779,172.32z M356.78,31.099
			c-13.058,22.761-33.701,59.812-37.927,72.146c-1.428,4.167-2.151,8.539-2.151,12.994c0,22.102,17.979,40.082,40.077,40.082
			c22.101,0,40.081-17.98,40.081-40.082c0-4.45-0.724-8.819-2.151-12.985C390.485,90.912,369.839,53.858,356.78,31.099z"/>
		<g opacity="0.1">
			<path fill="#54AACC" d="M380.102,106.809c-3.24-2.726-6.541-5.333-9.914-7.75c-4.054-2.908-8.188-2.79-12.229,0.216
				c-1.624,1.207-3.218,2.488-4.821,3.748c-2.168,1.703-4.304,3.484-6.502,5.113c-4.062,3.01-8.156,2.876-12.209-0.067
				c-1.535-1.116-3.03-2.339-4.553-3.493c-2.801-2.131-5.535-4.383-8.414-6.302c-0.154-0.103-0.322-0.195-0.497-0.28
				c-0.896,2.039-1.617,3.818-2.108,5.251c-0.899,2.624-1.518,5.33-1.854,8.086c0,0.004,0,0.008,0,0.012
				c3,0.342,6.412,2.387,9.271,4.731c2.191,1.795,4.394,3.553,6.562,5.4c5.196,4.426,10.368,4.373,15.559,0.006
				c1.068-0.896,2.132-1.781,3.212-2.647c2.11-1.696,4.191-3.454,6.347-5.039c4.09-3.013,8.278-3.122,12.382-0.128
				c3.359,2.448,6.644,5.09,9.904,7.769c5.322,4.372,10.574,4.493,15.888-0.028c0.145-0.123,0.292-0.238,0.437-0.36
				c0.19-1.578,0.299-3.179,0.299-4.807c0-3.081-0.355-6.121-1.042-9.083C390.576,111.305,385.395,111.258,380.102,106.809z"/>
			<path fill="#54AACC" d="M380.332,134.826c-2.931-2.425-5.912-4.745-8.883-7.082c-4.879-3.846-9.749-3.799-14.589,0.146
				c-2.291,1.865-4.646,3.607-6.836,5.664c-6.25,5.858-12.403,5.976-18.723,0.146c-2.742-2.527-5.653-4.767-8.616-6.802
				c-1.496-1.031-3.199-1.529-5.098-2.29c2.669,12.516,11.196,22.879,22.563,28.086c2.308,0.128,4.619-0.664,6.915-2.438
				c3.082-2.378,6.12-4.854,9.129-7.385c5.295-4.452,10.572-4.563,15.904-0.149c2.566,2.125,5.18,4.148,7.75,6.263
				c4.244-2.999,7.88-6.8,10.689-11.183C387.142,138.651,383.749,137.653,380.332,134.826z"/>
			<path fill="#54AACC" d="M331.065,92.242c6.207,5.805,12.361,6.247,18.69,0.279c2.497-2.355,5.188-4.355,7.847-6.385
				c4.275-3.266,8.642-3.416,12.968-0.194c2.911,2.17,5.847,4.325,8.609,6.811c4.263,3.837,8.442,4.901,12.591,3.392
				c-1.862-4.083-4.323-9.045-7.142-14.497c-1.32-0.521-2.633-1.287-3.935-2.297c-3.734-2.898-7.428-5.907-11.247-8.591
				c-3.46-2.433-7.068-2.289-10.572,0.048c-1.612,1.074-3.179,2.273-4.733,3.492c-2.361,1.847-4.678,3.792-7.038,5.632
				c-4.295,3.343-8.631,3.343-12.933,0.054c-1.041-0.797-2.068-1.622-3.096-2.446c-1.899,3.613-3.683,7.073-5.277,10.267
				C327.616,89.129,329.366,90.653,331.065,92.242z"/>
		</g>
	</g>
</g>
<g>
	<path fill="#5275CC" d="M1242.505,354.799h16.6v55h61v-55h16.8V486h-16.8v-61.801h-61V486h-16.6V354.799z"/>
	<path fill="#5275CC" d="M1359.769,522.849c7.985-7.984,15.081-15.192,21.292-21.625c6.209-6.43,11.42-12.394,15.636-17.883
		c4.214-5.488,7.429-10.534,9.648-15.137c2.217-4.601,3.327-9.065,3.327-13.391c0-6.098-1.663-11.088-4.99-14.972
		c-3.327-3.88-8.375-5.822-15.138-5.822c-4.437,0-8.541,1.248-12.31,3.743c-3.771,2.495-7.21,5.518-10.313,9.065l-7.818-7.818
		c4.434-4.879,9.149-8.787,14.14-11.728c4.99-2.937,10.979-4.407,17.965-4.407c9.869,0,17.633,2.855,23.289,8.566
		c5.656,5.713,8.484,13.281,8.484,22.706c0,4.991-1.082,10.01-3.244,15.055c-2.162,5.047-5.157,10.258-8.983,15.637
		c-3.825,5.38-8.374,10.979-13.64,16.801c-5.269,5.821-11.062,12.006-17.383,18.548c2.882-0.221,5.876-0.441,8.982-0.666
		c3.104-0.221,6.043-0.333,8.816-0.333h30.774V531h-68.535V522.849z"/>
	<path d="M1459.503,494.4v36h-6V390.399h5.199l0.801,12.399h0.399c4.8-3.865,10.031-7.299,15.7-10.299c5.666-3,11.5-4.5,17.5-4.5
		c12.932,0,22.565,4.434,28.9,13.299c6.33,8.869,9.5,20.701,9.5,35.5c0,8.135-1.135,15.4-3.4,21.801
		c-2.27,6.4-5.334,11.801-9.2,16.199c-3.868,4.4-8.368,7.77-13.5,10.102c-5.134,2.33-10.569,3.5-16.3,3.5
		c-4.669,0-9.469-1.035-14.4-3.102c-4.934-2.064-10-5.031-15.199-8.898V494.4z M1459.503,469.6
		c5.865,4.801,11.365,8.199,16.5,10.199c5.131,2,9.631,3,13.5,3c5.199,0,9.965-1.131,14.299-3.398
		c4.332-2.266,8.101-5.432,11.301-9.5c3.199-4.066,5.666-8.932,7.4-14.602c1.73-5.665,2.6-11.83,2.6-18.5
		c0-6.131-0.568-11.83-1.7-17.1c-1.134-5.266-3-9.831-5.601-13.699c-2.6-3.866-5.969-6.9-10.1-9.101c-4.135-2.2-9.135-3.3-15-3.3
		c-5.068,0-10.3,1.434-15.699,4.3c-5.4,2.868-11.234,7.034-17.5,12.5V469.6z"/>
	<path d="M1677.499,366c-1.869,0-3.469-0.632-4.801-1.9c-1.334-1.266-2-2.9-2-4.9c0-2.266,0.666-3.965,2-5.1
		c1.332-1.131,2.932-1.7,4.801-1.7c1.865,0,3.465,0.569,4.8,1.7c1.331,1.135,2,2.834,2,5.1c0,2-0.669,3.635-2,4.9
		C1680.964,365.368,1679.364,366,1677.499,366z M1674.299,390.399h6V486h-6V390.399z"/>
	<path d="M1708.695,390.399h5.2l0.8,15.2h0.399c5.066-5.066,10.2-9.266,15.4-12.6c5.2-3.332,11.131-5,17.8-5
		c9.866,0,17.132,2.934,21.8,8.799c4.666,5.869,7,15.069,7,27.601V486h-6v-60.801c0-10.666-1.8-18.6-5.399-23.8
		c-3.601-5.2-9.534-7.8-17.8-7.8c-6,0-11.5,1.6-16.5,4.8s-10.569,8-16.7,14.399V486h-6V390.399z"/>
	<path d="M1805.893,396h-15.2v-4.801l15.2-0.8l0.8-28h5.2v28h28.399V396h-28.399v65.6c0,3.068,0.231,5.9,0.7,8.5
		c0.465,2.6,1.3,4.834,2.5,6.699c1.199,1.869,2.899,3.336,5.1,4.4c2.2,1.068,5.031,1.6,8.5,1.6c1.865,0,3.932-0.33,6.2-1
		c2.266-0.664,4.331-1.398,6.2-2.199l2,5.199c-2.801,1.07-5.569,1.932-8.301,2.602c-2.734,0.664-4.899,1-6.5,1
		c-4.399,0-8.034-0.67-10.899-2c-2.869-1.332-5.169-3.201-6.9-5.602c-1.734-2.398-2.935-5.299-3.6-8.699
		c-0.669-3.4-1-7.166-1-11.301V396z"/>
	<path d="M1851.89,470.4c4,3.469,8.4,6.398,13.2,8.799s10.8,3.6,18,3.6c4,0,7.531-0.564,10.6-1.699
		c3.066-1.131,5.601-2.631,7.601-4.5c2-1.865,3.531-4.031,4.6-6.5c1.065-2.465,1.601-5.031,1.601-7.699
		c0-3.201-0.734-5.967-2.2-8.301c-1.469-2.332-3.335-4.4-5.601-6.2c-2.269-1.8-4.834-3.3-7.699-4.5c-2.869-1.2-5.7-2.331-8.5-3.399
		c-3.734-1.332-7.435-2.732-11.101-4.201c-3.669-1.465-7-3.199-10-5.199s-5.435-4.432-7.3-7.301c-1.869-2.865-2.8-6.365-2.8-10.5
		c0-3.33,0.631-6.5,1.899-9.5c1.266-3,3.166-5.631,5.7-7.899c2.531-2.266,5.666-4.065,9.4-5.399c3.731-1.332,8.065-2,13-2
		c4.8,0,9.531,0.899,14.2,2.699c4.665,1.801,8.73,4.1,12.199,6.9l-3.6,4.8c-3.2-2.399-6.6-4.466-10.2-6.2
		c-3.6-1.73-7.935-2.6-13-2.6c-4,0-7.469,0.534-10.399,1.6c-2.935,1.068-5.335,2.5-7.2,4.301c-1.869,1.799-3.269,3.799-4.2,6
		c-0.935,2.199-1.4,4.5-1.4,6.899c0,2.935,0.666,5.435,2,7.5c1.332,2.069,3.101,3.868,5.301,5.399
		c2.199,1.535,4.665,2.9,7.399,4.101c2.731,1.2,5.565,2.335,8.5,3.399c3.731,1.469,7.531,2.936,11.4,4.4
		c3.865,1.469,7.3,3.234,10.3,5.301c3,2.068,5.466,4.668,7.4,7.799c1.931,3.135,2.899,7.035,2.899,11.701c0,3.469-0.7,6.799-2.1,10
		c-1.4,3.199-3.4,6-6,8.4c-2.601,2.398-5.869,4.334-9.8,5.799c-3.935,1.467-8.369,2.201-13.301,2.201
		c-7.199,0-13.734-1.301-19.6-3.9c-5.869-2.6-10.935-5.701-15.2-9.301L1851.89,470.4z"/>
	<g>
		<path fill="#54AACC" d="M1598.779,494.32c-30.921,0-56.077-25.158-56.077-56.082c0-6.224,1.014-12.34,3.015-18.18
			c6.66-19.436,44.55-84.219,46.159-86.967l6.902-11.785l6.903,11.784c1.61,2.748,39.51,67.533,46.165,86.979
			c1.999,5.836,3.014,11.95,3.014,18.169C1654.86,469.162,1629.702,494.32,1598.779,494.32z M1598.78,353.099
			c-13.058,22.761-33.701,59.812-37.927,72.146c-1.428,4.167-2.151,8.539-2.151,12.994c0,22.102,17.979,40.082,40.077,40.082
			c22.101,0,40.081-17.98,40.081-40.082c0-4.45-0.724-8.819-2.151-12.985C1632.485,412.912,1611.839,375.858,1598.78,353.099z"/>
		<g opacity="0.1">
			<path fill="#54AACC" d="M1622.102,428.809c-3.24-2.726-6.541-5.333-9.914-7.75c-4.054-2.908-8.188-2.79-12.229,0.216
				c-1.624,1.207-3.218,2.488-4.821,3.748c-2.168,1.703-4.304,3.484-6.502,5.113c-4.062,3.01-8.156,2.876-12.209-0.067
				c-1.535-1.116-3.03-2.339-4.553-3.493c-2.801-2.131-5.535-4.383-8.414-6.302c-0.154-0.103-0.322-0.195-0.497-0.28
				c-0.896,2.039-1.617,3.818-2.108,5.251c-0.899,2.624-1.518,5.33-1.854,8.086c0,0.004,0,0.008,0,0.012
				c3,0.342,6.412,2.387,9.271,4.731c2.191,1.795,4.394,3.553,6.562,5.4c5.196,4.426,10.368,4.373,15.559,0.006
				c1.068-0.896,2.132-1.781,3.212-2.647c2.11-1.696,4.191-3.454,6.347-5.039c4.09-3.013,8.278-3.122,12.382-0.128
				c3.359,2.448,6.644,5.09,9.904,7.769c5.322,4.372,10.574,4.493,15.888-0.028c0.145-0.123,0.292-0.238,0.437-0.36
				c0.19-1.578,0.299-3.179,0.299-4.807c0-3.081-0.355-6.121-1.042-9.083C1632.576,433.305,1627.395,433.258,1622.102,428.809z"/>
			<path fill="#54AACC" d="M1622.332,456.826c-2.931-2.425-5.912-4.745-8.883-7.082c-4.879-3.846-9.749-3.799-14.589,0.146
				c-2.291,1.865-4.646,3.607-6.836,5.664c-6.25,5.858-12.403,5.976-18.723,0.146c-2.742-2.527-5.653-4.767-8.616-6.802
				c-1.496-1.03-3.199-1.529-5.098-2.29c2.669,12.516,11.196,22.879,22.563,28.086c2.308,0.128,4.619-0.664,6.915-2.438
				c3.082-2.378,6.12-4.854,9.129-7.385c5.295-4.452,10.572-4.563,15.904-0.149c2.566,2.126,5.18,4.148,7.75,6.263
				c4.244-2.999,7.88-6.8,10.689-11.183C1629.142,460.651,1625.749,459.653,1622.332,456.826z"/>
			<path fill="#54AACC" d="M1573.065,414.242c6.207,5.805,12.361,6.247,18.69,0.279c2.497-2.355,5.188-4.355,7.847-6.385
				c4.275-3.266,8.642-3.416,12.968-0.194c2.911,2.17,5.847,4.325,8.609,6.811c4.263,3.837,8.442,4.901,12.591,3.392
				c-1.862-4.083-4.323-9.045-7.142-14.497c-1.32-0.521-2.633-1.287-3.935-2.297c-3.734-2.898-7.428-5.907-11.247-8.591
				c-3.46-2.433-7.068-2.289-10.572,0.048c-1.612,1.074-3.179,2.273-4.733,3.492c-2.361,1.847-4.678,3.792-7.038,5.632
				c-4.295,3.343-8.631,3.343-12.933,0.054c-1.041-0.797-2.068-1.622-3.096-2.446c-1.899,3.613-3.683,7.073-5.277,10.267
				C1569.616,411.129,1571.366,412.653,1573.065,414.242z"/>
		</g>
	</g>
</g>
</svg>
